<svg version="1.1" id="Layer_1" xmlns="http://www.w3.org/2000/svg" xmlns:xlink="http://www.w3.org/1999/xlink" x="0px" y="0px"
	 width="100%" viewBox="0 0 512 448" enable-background="new 0 0 512 448" xml:space="preserve">
<path fill="#000000" opacity="1.000000" stroke="none" 
	d="
M248.554565,36.250473 
	C273.245148,34.441029 296.505096,37.788807 318.204803,49.401745 
	C322.795624,51.858589 327.232422,54.614262 330.760498,58.375942 
	C334.109894,61.947140 338.059692,63.011143 342.648529,63.708458 
	C364.747681,67.066628 385.429657,74.384331 402.743195,88.831673 
	C418.823517,102.249992 430.108215,119.192680 435.483734,139.698517 
	C436.268372,142.691559 437.673920,145.021545 439.964111,147.211929 
	C454.754639,161.357941 462.139923,178.919220 463.289917,199.220276 
	C464.204681,215.368958 461.721649,230.786316 453.205688,244.849838 
	C446.658600,255.661942 437.959808,264.216431 426.327362,269.391724 
	C415.791382,274.079163 406.169556,272.167114 397.689636,264.452271 
	C390.368896,257.792084 384.683105,249.743546 378.732117,241.922180 
	C369.422882,229.686996 359.450684,218.098495 347.002350,208.858353 
	C331.069519,197.031754 313.017151,190.796616 293.507782,188.363815 
	C287.563049,187.622513 281.583679,187.151657 275.646484,186.359497 
	C271.482025,185.803833 269.287811,187.136139 268.237335,191.472839 
	C265.798431,201.541122 262.135101,211.237396 257.029114,220.262482 
	C249.721176,233.179657 238.958893,241.114990 223.638550,241.203049 
	C213.488373,241.261398 205.663483,236.610870 200.761047,227.658035 
	C195.795990,218.590881 196.099823,209.423920 201.341553,200.546967 
	C206.434174,191.922531 214.459473,187.055099 223.613876,183.729645 
	C234.846100,179.649399 246.450134,177.617615 258.378326,177.740997 
	C261.968414,177.778107 263.717987,176.566299 264.809631,173.080551 
	C267.246521,165.298935 270.055664,157.628143 272.917267,149.988647 
	C273.819489,147.580048 273.474518,146.057495 271.540466,144.340347 
	C243.777847,119.691833 211.851135,112.660248 176.656296,123.528633 
	C156.548859,129.737946 142.112610,143.755524 132.581192,162.585663 
	C131.633224,164.458450 130.706436,166.438232 130.823074,169.300842 
	C137.684311,165.333130 144.208664,161.462265 151.851456,160.100876 
	C165.923553,157.594208 177.878555,165.894119 179.728317,179.702530 
	C180.840714,188.006561 176.031906,197.265396 167.811966,200.991653 
	C156.801987,205.982697 145.387894,206.938187 133.813354,202.585480 
	C129.157501,200.834595 125.855629,197.380859 122.405983,193.150024 
	C117.871574,200.771927 114.835327,208.273087 113.778488,216.400833 
	C112.418251,226.861862 111.934219,237.357025 116.416130,247.352142 
	C125.084923,266.684418 147.469254,277.917145 169.459412,274.389496 
	C181.053818,272.529510 191.939316,268.295715 203.171127,265.230438 
	C216.616592,261.561035 230.153961,259.108276 244.069519,262.518158 
	C247.086273,263.257355 248.665527,262.046539 249.608582,259.143829 
	C254.062790,245.434067 263.993927,237.497223 277.379608,233.463165 
	C302.821228,225.795792 327.100403,229.155884 350.304718,241.581924 
	C357.898193,245.648300 364.263367,251.298828 369.468567,258.131409 
	C380.873627,273.102142 376.252380,290.188934 358.441040,296.175079 
	C337.387939,303.250732 316.143311,303.102814 295.532471,293.957764 
	C288.238831,290.721619 281.315796,286.655975 274.185638,283.043823 
	C269.027313,280.430542 263.806427,277.940643 257.813904,275.003906 
	C258.788483,278.958954 260.670502,281.139069 262.722107,283.268280 
	C271.047119,291.908264 281.674194,297.338409 291.446503,303.960022 
	C302.525909,311.467255 313.313599,319.181122 319.624451,331.645538 
	C323.187927,338.683807 324.632599,346.201965 325.034515,353.806152 
	C325.790619,368.112640 325.725800,382.448883 323.496002,396.686951 
	C323.002502,399.838318 322.566345,403.177643 318.521973,402.731689 
	C314.111267,402.245361 314.402405,398.485870 314.866028,395.315491 
	C316.680481,382.908142 317.095337,370.438080 316.607635,357.940796 
	C316.439667,353.636688 315.852051,349.316864 315.071472,345.074982 
	C312.955292,333.575378 305.861145,325.373688 296.958710,318.430817 
	C288.136444,311.550476 278.356628,306.101532 269.157684,299.782196 
	C259.648132,293.249512 251.084747,285.996643 248.091263,274.161896 
	C247.469833,271.705139 245.589493,271.396118 243.599228,270.915558 
	C231.572861,268.011444 219.753937,269.407959 208.082748,272.739990 
	C195.443802,276.348297 183.058273,280.832367 169.986206,282.876129 
	C141.003418,287.407410 112.198448,270.085999 106.224098,243.747894 
	C101.979996,225.037613 104.562637,206.957855 114.117805,190.154099 
	C117.078850,184.946777 119.557816,179.932098 120.382668,173.686859 
	C122.009819,161.367249 127.997116,150.694260 136.077362,141.291885 
	C156.832031,117.141243 183.598434,108.358719 214.725800,110.304855 
	C237.275131,111.714668 256.418915,120.936913 273.696777,134.834610 
	C275.110046,135.971405 276.574524,137.044510 277.872833,138.038223 
	C280.153992,137.667770 280.570312,135.789352 281.492310,134.533508 
	C288.231140,125.354813 297.113037,120.979378 308.597076,121.597832 
	C324.240570,122.440277 338.530090,132.691788 342.432343,146.216003 
	C347.228149,162.837082 334.717133,176.757187 317.747894,173.731644 
	C305.216309,171.497345 295.912750,163.483429 286.167725,156.245987 
	C284.965515,155.353119 283.820068,154.383850 282.617615,153.491364 
	C282.374176,153.310699 281.992035,153.316940 281.235992,153.127045 
	C277.416443,159.900513 275.698700,167.531006 273.571411,174.960693 
	C272.678375,178.079697 275.644318,177.678177 277.518250,177.812256 
	C290.172607,178.717773 302.664276,180.547684 314.931122,183.887665 
	C339.620117,190.609894 359.132874,205.001526 375.605896,224.151062 
	C384.516846,234.509857 391.695709,246.267685 401.450409,255.920639 
	C410.822937,265.195374 417.380310,265.750854 428.465393,258.425079 
	C443.827332,248.272888 451.906433,233.401062 454.294952,215.729446 
	C456.920959,196.300766 453.348236,177.877365 441.345276,161.728226 
	C440.372559,160.419495 439.586823,158.880844 437.796936,158.128113 
	C437.481201,158.393982 436.890686,158.637650 436.815765,158.990707 
	C433.304596,175.537704 421.527496,181.800720 406.200287,183.561859 
	C392.632111,185.120911 381.013489,178.536118 376.308380,166.761841 
	C369.620361,150.025391 380.884552,133.857208 399.860443,132.647583 
	C408.648193,132.087387 416.976898,133.862152 425.367920,137.046143 
	C418.361053,106.393898 373.331360,71.566093 343.670410,73.410599 
	C343.144531,75.184586 344.251373,76.611725 344.758423,78.140106 
	C346.504944,83.404480 347.683075,88.736732 347.150696,94.331985 
	C345.984467,106.588554 339.941315,113.183228 327.776855,114.788170 
	C318.825836,115.969147 310.418762,113.797729 303.230194,108.381012 
	C289.795349,98.257637 292.053223,79.074341 307.566467,69.610786 
	C311.992615,66.910690 316.835052,65.183983 321.929657,63.786636 
	C311.327209,49.846901 269.478912,40.530182 246.342743,45.808475 
	C245.842316,46.542866 246.299530,47.148529 246.755692,47.571270 
	C262.824310,62.462727 250.013184,87.782692 232.399017,92.886513 
	C225.822372,94.792137 219.227524,95.031136 212.781036,92.538460 
	C197.088791,86.470718 193.809433,66.271431 206.258331,53.021797 
	C209.241623,49.846611 213.016006,47.717243 216.903122,44.904037 
	C210.684387,42.948322 204.725876,43.082703 198.823090,43.010559 
	C172.916428,42.693905 148.074982,46.985836 125.447594,60.454636 
	C120.409012,63.453815 115.927734,67.194618 112.125053,71.681976 
	C110.108833,74.061203 108.147591,76.511475 107.331917,80.003540 
	C111.181686,80.775581 114.546829,79.661156 117.919884,79.392563 
	C122.973831,78.990135 127.941231,79.372360 132.722275,80.906548 
	C141.140808,83.607956 146.907852,89.098572 148.214600,98.081856 
	C149.517593,107.039268 144.268204,116.167709 135.806976,120.836395 
	C118.491959,130.390381 98.802834,120.509285 95.872322,100.811394 
	C95.631119,99.190086 96.010826,97.447945 95.008522,95.967117 
	C72.103691,96.343430 43.604343,139.121201 48.671738,165.776016 
	C51.609653,165.944550 53.973888,164.151230 56.553963,163.220230 
	C64.437012,160.375717 72.142578,160.004318 79.747627,164.101059 
	C89.341499,169.269104 93.922813,180.919296 90.497009,191.594131 
	C87.533707,200.827805 78.452835,205.673203 67.296806,204.587585 
	C56.503883,203.537277 48.988079,198.185822 44.202702,188.647232 
	C43.627491,187.500687 42.980263,186.390289 42.117508,184.806076 
	C35.204456,194.493057 34.209053,204.763718 37.764721,215.072220 
	C46.020203,239.006317 62.696869,253.055679 88.234146,255.875671 
	C91.279068,256.211914 94.768456,256.359619 94.448792,260.610321 
	C94.113663,265.066620 90.721458,264.845703 87.332657,264.523865 
	C59.556152,261.886017 36.676144,243.275192 29.344526,216.715012 
	C25.408579,202.456268 27.249043,188.937622 36.818504,177.093781 
	C38.673580,174.797821 39.691158,172.554840 39.618393,169.439651 
	C38.691708,129.767670 54.985405,102.480682 89.763023,87.646492 
	C94.082443,85.804070 96.530457,83.347107 98.076866,78.769432 
	C102.430435,65.881996 112.086563,57.179356 123.744820,51.316017 
	C156.985641,34.598076 191.850739,29.073265 228.417206,38.281895 
	C230.924774,38.913383 233.310654,38.935120 235.810867,38.455914 
	C239.894104,37.673290 244.004883,37.034245 248.554565,36.250473 
M365.433350,268.176788 
	C362.913849,263.193695 359.447205,258.916901 355.053406,255.546982 
	C331.785767,237.701126 305.892151,233.952820 278.202942,242.243805 
	C268.791351,245.061920 261.693939,251.342239 258.002472,260.896118 
	C256.809479,263.983643 257.403900,265.675873 260.667511,267.024048 
	C270.205414,270.964020 279.380646,275.695618 288.277252,280.926727 
	C306.610107,291.706177 326.263794,294.396301 346.979523,290.691284 
	C351.258270,289.925995 355.340729,288.477753 359.143921,286.350677 
	C366.724121,282.111145 368.553864,277.189178 365.433350,268.176788 
M230.884949,190.416855 
	C224.262558,192.311417 218.047638,194.935410 212.988708,199.844681 
	C205.311966,207.294327 203.892670,217.632095 209.564484,225.550293 
	C214.912766,233.016876 224.827148,234.959229 234.241104,230.334442 
	C252.213272,221.505280 254.569366,203.368210 260.853607,187.277115 
	C254.691589,185.735901 242.317093,187.110901 230.884949,190.416855 
M408.261841,174.751297 
	C421.133087,172.000153 427.928802,165.297470 428.737885,154.984482 
	C429.063721,150.831543 427.792389,148.096756 424.018036,146.126312 
	C415.936951,141.907501 407.381592,140.374741 398.455139,141.504883 
	C388.762177,142.732086 383.209045,148.547150 383.118164,156.843994 
	C382.985626,168.942780 393.627899,176.821823 408.261841,174.751297 
M334.619629,150.928360 
	C331.962219,138.547318 322.860382,133.470932 311.693481,130.876236 
	C301.545288,128.518234 292.184448,132.725388 287.032776,141.704025 
	C286.264801,143.042480 285.254486,144.364838 286.896545,145.649918 
	C296.444611,153.122330 305.538422,161.426834 317.528503,164.897736 
	C327.619354,167.818802 334.521973,162.332214 334.619629,150.928360 
M229.799622,84.503365 
	C238.316605,81.357910 243.405182,75.280075 245.216309,66.424858 
	C246.758255,58.885677 236.877090,46.967228 230.197495,48.924381 
	C222.499344,51.179966 215.269379,54.883537 210.508667,61.777298 
	C203.910721,71.331482 207.606842,82.378708 218.233734,85.221375 
	C221.823532,86.181656 225.483337,85.998703 229.799622,84.503365 
M313.598877,76.011627 
	C310.398346,77.902046 307.794342,80.419159 305.797333,83.546638 
	C300.980957,91.089607 302.643219,98.036911 310.283966,102.557747 
	C313.760315,104.614601 317.494019,105.917862 321.476654,106.479446 
	C328.120239,107.416252 334.216278,104.774094 336.985870,99.826622 
	C340.546448,93.466217 338.893799,79.831291 332.829346,74.121231 
	C327.802155,69.387787 321.937256,73.306648 316.498962,74.612160 
	C315.708496,74.801918 314.989410,75.288963 313.598877,76.011627 
M147.076202,170.509506 
	C141.002075,172.701813 135.970505,176.410965 131.443176,180.957306 
	C129.056717,183.353806 128.790451,185.704132 130.467117,188.558105 
	C131.944397,191.072662 133.744507,193.324921 136.449203,194.369736 
	C146.320496,198.182968 156.078079,197.669662 165.193237,192.285004 
	C169.384644,189.808975 171.939026,185.460190 171.304825,180.501968 
	C170.612701,175.091141 167.454681,171.123795 161.950348,169.226028 
	C157.014481,167.524261 152.448196,168.801819 147.076202,170.509506 
M123.314362,88.023010 
	C117.954712,87.832840 112.735977,88.627579 107.612167,90.185959 
	C105.736923,90.756302 104.425026,91.585693 104.075569,93.791359 
	C102.631157,102.907898 109.194206,113.180206 117.942749,115.285919 
	C127.298668,117.537834 138.266098,111.061852 139.614212,102.489502 
	C140.807693,94.900452 134.587646,89.089828 123.314362,88.023010 
M56.903118,172.298065 
	C55.014484,173.335358 53.091801,174.316345 51.249462,175.430206 
	C50.066399,176.145462 49.222378,177.120087 49.667465,178.726212 
	C53.170074,191.365463 61.488117,198.252945 75.272110,195.466278 
	C79.262993,194.659470 81.773331,191.516632 82.620781,187.444550 
	C84.451935,178.645599 78.333359,170.708542 69.328308,170.072830 
	C65.274162,169.786621 61.389229,170.524078 56.903118,172.298065 
z"/>
</svg>