<svg width="478" height="404" viewBox="0 0 478 404" fill="none" xmlns="http://www.w3.org/2000/svg">
    <path d="M235.143 2.64878C208.138 0.669701 182.697 4.33133 158.963 17.033C153.942 19.7202 149.089 22.7342 145.231 26.8485C141.567 30.7545 137.247 31.9183 132.228 32.681C108.057 36.354 85.4362 44.3577 66.4996 60.1595C48.9117 74.8358 36.5691 93.3668 30.6896 115.795C29.8314 119.069 28.2941 121.617 25.7892 124.013C9.61202 139.485 1.53436 158.693 0.276554 180.897C-0.723969 198.56 1.99186 215.422 11.3062 230.804C18.4671 242.63 27.9814 251.987 40.7044 257.647C52.2281 262.774 62.752 260.683 72.0269 252.245C80.034 244.96 86.2528 236.157 92.7617 227.602C102.944 214.22 113.851 201.545 127.466 191.439C144.893 178.503 164.637 171.684 185.976 169.023C192.478 168.212 199.018 167.697 205.512 166.831C210.066 166.223 212.466 167.68 213.615 172.423C216.283 183.435 220.29 194.041 225.874 203.912C233.867 218.04 245.639 226.719 262.395 226.816C273.497 226.879 282.056 221.793 287.418 212.001C292.848 202.084 292.516 192.057 286.783 182.348C281.213 172.915 272.435 167.591 262.422 163.954C250.137 159.491 237.445 157.269 224.399 157.404C220.472 157.445 218.558 156.119 217.364 152.307C214.699 143.796 211.627 135.406 208.497 127.05C207.51 124.415 207.887 122.75 210.003 120.872C240.368 93.9128 275.288 86.222 313.782 98.1093C335.775 104.901 351.564 120.232 361.989 140.828C363.026 142.876 364.04 145.042 363.912 148.173C356.408 143.833 349.272 139.599 340.912 138.11C325.521 135.368 312.445 144.447 310.422 159.549C309.205 168.632 314.465 178.759 323.456 182.834C335.498 188.293 347.982 189.338 360.642 184.578C365.734 182.663 369.345 178.885 373.118 174.258C378.078 182.594 381.399 190.799 382.555 199.688C384.043 211.13 384.572 222.609 379.67 233.541C370.188 254.686 345.705 266.972 321.654 263.113C308.972 261.079 297.066 256.448 284.782 253.096C270.076 249.082 255.269 246.4 240.049 250.129C236.749 250.938 235.022 249.613 233.991 246.438C229.119 231.443 218.257 222.762 203.616 218.35C175.789 209.964 149.234 213.639 123.854 227.23C115.549 231.678 108.587 237.858 102.894 245.331C90.4194 261.705 95.4739 280.394 114.955 286.941C137.982 294.68 161.218 294.519 183.761 284.516C191.739 280.977 199.311 276.53 207.109 272.579C212.751 269.721 218.462 266.997 225.016 263.785C223.95 268.111 221.892 270.496 219.648 272.825C210.542 282.275 198.919 288.214 188.23 295.456C176.112 303.667 164.313 312.104 157.411 325.737C153.513 333.435 151.933 341.658 151.493 349.975C150.666 365.623 150.737 381.303 153.176 396.876C153.716 400.323 154.193 403.975 158.617 403.488C163.441 402.956 163.122 398.844 162.615 395.376C160.631 381.806 160.177 368.166 160.71 354.498C160.894 349.79 161.537 345.065 162.391 340.426C164.705 327.848 172.464 318.877 182.201 311.284C191.851 303.758 202.547 297.798 212.609 290.887C223.01 283.741 232.376 275.809 235.65 262.864C236.33 260.177 238.386 259.839 240.563 259.314C253.717 256.137 266.644 257.665 279.409 261.309C293.233 265.256 306.78 270.16 321.078 272.396C352.777 277.352 384.283 258.406 390.817 229.599C395.459 209.135 392.635 189.36 382.184 170.981C378.945 165.285 376.234 159.801 375.331 152.97C373.552 139.495 367.003 127.822 358.165 117.538C335.465 91.1231 306.189 81.5172 272.144 83.6458C247.48 85.1877 226.542 95.2746 207.644 110.475C206.098 111.719 204.497 112.892 203.077 113.979C200.582 113.574 200.126 111.519 199.118 110.146C191.747 100.107 182.033 95.321 169.472 95.9975C152.362 96.9189 136.733 108.131 132.465 122.924C127.219 141.103 140.903 156.328 159.463 153.019C173.17 150.575 183.345 141.81 194.004 133.894C195.319 132.917 196.572 131.857 197.887 130.881C198.153 130.683 198.571 130.69 199.398 130.483C203.576 137.891 205.454 146.237 207.781 154.363C208.758 157.774 205.514 157.335 203.464 157.482C189.624 158.472 175.961 160.474 162.544 164.127C135.54 171.479 114.198 187.22 96.181 208.165C86.4346 219.495 78.5827 232.355 67.9135 242.913C57.6623 253.057 50.4902 253.665 38.3659 245.652C21.5638 234.548 12.7273 218.282 10.1148 198.954C7.24262 177.704 11.1503 157.553 24.2785 139.89C25.3424 138.459 26.2018 136.776 28.1595 135.952C28.5049 136.243 29.1507 136.51 29.2327 136.896C33.073 154.994 45.9542 161.844 62.7184 163.771C77.5586 165.476 90.2664 158.274 95.4126 145.396C102.728 127.09 90.4075 109.406 69.6526 108.083C60.041 107.47 50.9314 109.412 41.7538 112.894C49.4175 79.3681 98.6688 41.2752 131.11 43.2927C131.686 45.233 130.475 46.7939 129.92 48.4656C128.01 54.2235 126.722 60.0556 127.304 66.1754C128.579 79.5811 135.189 86.794 148.494 88.5494C158.284 89.8411 167.479 87.4661 175.342 81.5416C190.036 70.4691 187.567 49.4874 170.599 39.1366C165.758 36.1834 160.462 34.2948 154.889 32.7665C166.486 17.5199 212.257 7.32971 237.563 13.1028C238.11 13.9061 237.61 14.5685 237.111 15.0309C219.536 31.3184 233.548 59.0121 252.814 64.5945C260.007 66.6787 267.22 66.9401 274.271 64.2138C291.434 57.5772 295.021 35.4842 281.405 20.9924C278.142 17.5196 274.014 15.1906 269.762 12.1136C276.564 9.97455 283.081 10.1215 289.537 10.0426C317.873 9.69628 345.043 14.3906 369.792 29.1221C375.303 32.4024 380.204 36.4939 384.363 41.402C386.568 44.0043 388.714 46.6843 389.606 50.5037C385.395 51.3481 381.714 50.1292 378.025 49.8354C372.497 49.3953 367.064 49.8133 361.835 51.4914C352.627 54.446 346.319 60.4514 344.89 70.2769C343.465 80.074 349.207 90.0583 358.461 95.1646C377.399 105.614 398.934 94.8069 402.14 73.2623C402.403 71.489 401.988 69.5835 403.084 67.9639C428.137 68.3755 459.308 115.164 453.765 144.317C450.552 144.502 447.966 142.54 445.144 141.522C436.522 138.411 428.094 138.005 419.776 142.485C409.283 148.138 404.272 160.88 408.019 172.556C411.26 182.655 421.192 187.955 433.394 186.768C445.199 185.619 453.419 179.766 458.653 169.333C459.282 168.079 459.99 166.864 460.934 165.131C468.495 175.727 469.584 186.96 465.695 198.235C456.665 224.413 438.425 239.779 410.494 242.864C407.163 243.232 403.347 243.393 403.697 248.042C404.063 252.916 407.773 252.675 411.48 252.323C441.86 249.438 466.885 229.082 474.904 200.032C479.209 184.436 477.196 169.65 466.73 156.696C464.701 154.185 463.588 151.732 463.667 148.324C464.681 104.933 446.86 75.0881 408.822 58.8632C404.097 56.848 401.42 54.1607 399.728 49.1539C394.967 35.0583 384.405 25.5397 371.654 19.1267C335.297 0.841473 297.163 -5.20129 257.169 4.87065C254.426 5.56134 251.816 5.58511 249.082 5.06098C244.616 4.20499 240.12 3.50603 235.143 2.64878ZM107.307 256.318C110.063 250.868 113.855 246.19 118.66 242.504C144.109 222.985 172.43 218.886 202.715 227.954C213.009 231.036 220.772 237.905 224.81 248.355C226.115 251.732 225.464 253.583 221.895 255.057C211.463 259.367 201.427 264.542 191.697 270.263C171.645 282.053 150.149 284.996 127.491 280.943C122.811 280.106 118.346 278.522 114.186 276.196C105.895 271.559 103.894 266.176 107.307 256.318ZM254.47 171.268C261.713 173.34 268.51 176.21 274.044 181.58C282.44 189.728 283.992 201.035 277.789 209.695C271.939 217.862 261.095 219.986 250.799 214.928C231.142 205.271 228.565 185.434 221.691 167.834C228.431 166.148 241.966 167.652 254.47 171.268ZM60.4635 154.134C46.3856 151.125 38.9528 143.794 38.0678 132.514C37.7115 127.972 39.102 124.981 43.2302 122.825C52.0689 118.211 61.4263 116.535 71.1896 117.771C81.7913 119.113 87.865 125.473 87.9644 134.548C88.1094 147.781 76.4694 156.399 60.4635 154.134ZM141.01 128.078C143.916 114.536 153.871 108.984 166.085 106.146C177.185 103.567 187.423 108.168 193.058 117.989C193.898 119.453 195.003 120.899 193.207 122.304C182.764 130.477 172.817 139.56 159.703 143.357C148.666 146.552 141.117 140.551 141.01 128.078ZM255.657 55.4254C246.341 51.985 240.776 45.3374 238.795 35.652C237.108 27.406 247.916 14.3702 255.221 16.5109C263.641 18.9779 271.549 23.0287 276.756 30.5687C283.973 41.0186 279.93 53.1015 268.307 56.2107C264.38 57.261 260.378 57.0609 255.657 55.4254ZM164.001 46.1375C167.502 48.2052 170.35 50.9583 172.534 54.379C177.802 62.6291 175.984 70.2277 167.627 75.1724C163.825 77.422 159.741 78.8475 155.385 79.4617C148.118 80.4863 141.451 77.5965 138.422 72.1852C134.527 65.2285 136.335 50.3153 142.968 44.0699C148.466 38.8927 154.881 43.179 160.829 44.6069C161.694 44.8144 162.48 45.3471 164.001 46.1375ZM346.135 149.495C352.779 151.892 358.282 155.949 363.234 160.922C365.844 163.543 366.135 166.114 364.302 169.235C362.686 171.986 360.717 174.449 357.759 175.592C346.962 179.762 336.29 179.201 326.32 173.312C321.735 170.603 318.942 165.847 319.635 160.424C320.392 154.506 323.846 150.166 329.867 148.091C335.265 146.229 340.26 147.627 346.135 149.495ZM372.125 59.275C377.987 59.067 383.695 59.9362 389.299 61.6407C391.35 62.2645 392.785 63.1717 393.167 65.5841C394.747 75.5553 387.569 86.7907 378 89.0938C367.767 91.5568 355.771 84.4737 354.297 75.0977C352.992 66.7972 359.795 60.4418 372.125 59.275ZM444.762 151.451C446.828 152.585 448.931 153.658 450.946 154.877C452.24 155.659 453.163 156.725 452.676 158.482C448.845 172.306 439.747 179.839 424.671 176.791C420.306 175.909 417.56 172.471 416.633 168.017C414.631 158.393 421.323 149.712 431.172 149.017C435.606 148.704 439.856 149.511 444.762 151.451Z" fill="black"/>
    </svg>
    