<svg width="295" height="249" viewBox="0 0 295 249" fill="none" xmlns="http://www.w3.org/2000/svg">
<mask id="path-1-inside-1_150_40" fill="white">
<path d="M145.391 1.61977C128.687 0.398501 112.952 2.65805 98.2718 10.4961C95.1661 12.1543 92.1646 14.0142 89.7778 16.5531C87.5119 18.9635 84.8399 19.6816 81.7355 20.1523C66.7853 22.4188 52.7938 27.3579 41.0811 37.109C30.2027 46.1655 22.5685 57.6008 18.932 71.4411C18.4011 73.4612 17.4503 75.0338 15.901 76.5122C5.89508 86.0599 0.898898 97.9127 0.120921 111.615C-0.497922 122.514 1.18186 132.92 6.94296 142.412C11.3721 149.709 17.2569 155.483 25.1263 158.976C32.2539 162.14 38.7632 160.85 44.4999 155.642C49.4524 151.147 53.2989 145.715 57.3248 140.436C63.6225 132.178 70.3688 124.356 78.7901 118.12C89.5688 110.138 101.781 105.929 114.98 104.287C119.001 103.787 123.046 103.469 127.063 102.934C129.88 102.559 131.364 103.459 132.075 106.386C133.725 113.181 136.203 119.726 139.658 125.817C144.601 134.535 151.882 139.891 162.246 139.951C169.113 139.99 174.407 136.851 177.723 130.809C181.082 124.689 180.877 118.502 177.33 112.51C173.885 106.689 168.456 103.404 162.263 101.159C154.664 98.4055 146.814 97.0342 138.745 97.1175C136.316 97.1425 135.132 96.3246 134.394 93.972C132.745 88.7198 130.845 83.5425 128.909 78.3863C128.299 76.7606 128.532 75.733 129.841 74.574C148.622 57.9377 170.221 53.1918 194.03 60.5273C207.633 64.7183 217.399 74.1793 223.847 86.8885C224.489 88.1525 225.116 89.4888 225.037 91.4209C220.395 88.7429 215.981 86.1303 210.811 85.2114C201.291 83.5196 193.203 89.1215 191.952 98.4414C191.199 104.046 194.453 110.295 200.013 112.81C207.462 116.179 215.183 116.824 223.014 113.886C226.163 112.704 228.397 110.373 230.731 107.518C233.798 112.662 235.852 117.725 236.567 123.211C237.488 130.271 237.815 137.355 234.783 144.101C228.919 157.149 213.775 164.73 198.899 162.349C191.055 161.094 183.691 158.237 176.093 156.168C166.997 153.691 157.839 152.036 148.425 154.337C146.384 154.836 145.316 154.019 144.678 152.06C141.664 142.806 134.946 137.449 125.89 134.727C108.679 129.552 92.2539 131.819 76.5561 140.206C71.419 142.951 67.1129 146.765 63.5916 151.376C55.876 161.481 59.0023 173.013 71.0518 177.053C85.2943 181.829 99.6664 181.729 113.61 175.557C118.544 173.373 123.227 170.629 128.051 168.191C131.541 166.427 135.073 164.746 139.127 162.764C138.467 165.434 137.194 166.905 135.806 168.342C130.174 174.174 122.985 177.839 116.374 182.308C108.879 187.375 101.581 192.581 97.3114 200.994C94.9007 205.744 93.9234 210.819 93.6515 215.951C93.14 225.607 93.1838 235.283 94.6923 244.893C95.0262 247.02 95.3212 249.274 98.0573 248.973C101.041 248.645 100.844 246.107 100.531 243.967C99.303 235.593 99.0224 227.177 99.3523 218.742C99.4659 215.837 99.8635 212.921 100.392 210.058C101.823 202.296 106.622 196.761 112.645 192.075C118.613 187.431 125.229 183.753 131.452 179.488C137.886 175.079 143.679 170.184 145.704 162.196C146.124 160.538 147.396 160.329 148.743 160.005C156.879 158.045 164.874 158.987 172.77 161.236C181.32 163.672 189.699 166.698 198.543 168.077C218.15 171.136 237.636 159.445 241.678 141.668C244.549 129.04 242.802 116.837 236.338 105.496C234.335 101.981 232.658 98.5963 232.1 94.3812C230.999 86.0662 226.948 78.8625 221.482 72.5165C207.441 56.2162 189.334 50.2886 168.276 51.6021C153.021 52.5536 140.07 58.7781 128.382 68.1582C127.426 68.9255 126.435 69.6498 125.557 70.3205C124.013 70.0704 123.732 68.8026 123.108 67.955C118.549 61.7599 112.541 58.8067 104.772 59.2242C94.1886 59.7928 84.5217 66.7119 81.8818 75.84C78.6374 87.0582 87.1011 96.4535 98.5809 94.4114C107.059 92.9034 113.353 87.4945 119.945 82.6096C120.758 82.007 121.533 81.3528 122.347 80.7504C122.511 80.6285 122.77 80.6327 123.281 80.5045C125.865 85.0762 127.027 90.2263 128.467 95.2409C129.071 97.3461 127.064 97.0751 125.797 97.1656C117.236 97.7767 108.785 99.0118 100.486 101.266C83.7842 105.803 70.5838 115.517 59.4397 128.442C53.4114 135.433 48.5548 143.369 41.9557 149.884C35.6151 156.144 31.179 156.519 23.6799 151.574C13.2875 144.722 7.82191 134.685 6.20607 122.757C4.42956 109.644 6.84652 97.2095 14.9666 86.3098C15.6246 85.4265 16.1562 84.388 17.3671 83.8799C17.5807 84.0594 17.9802 84.2238 18.0308 84.4621C20.4062 95.6304 28.3734 99.8575 38.7424 101.046C47.9213 102.098 55.7814 97.6541 58.9644 89.7072C63.4889 78.4111 55.8686 67.4985 43.0313 66.6821C37.0864 66.304 31.4519 67.5019 25.7754 69.6509C30.5156 48.9624 60.9784 25.4557 81.0442 26.7006C81.4 27.898 80.6512 28.8612 80.3082 29.8928C79.1266 33.4459 78.3296 37.0449 78.6898 40.8213C79.4787 49.0938 83.567 53.5448 91.7963 54.628C97.8517 55.4251 103.539 53.9596 108.402 50.3036C117.491 43.4709 115.964 30.5233 105.469 24.136C102.474 22.3136 99.1985 21.1482 95.7519 20.205C102.925 10.7966 131.235 4.50832 146.887 8.07085C147.225 8.56652 146.916 8.97531 146.608 9.26063C135.737 19.3115 144.404 36.401 156.32 39.8457C160.769 41.1319 165.231 41.2932 169.592 39.6108C180.207 35.5155 182.426 21.8821 174.004 12.9394C171.986 10.7964 169.433 9.35916 166.803 7.46041C171.01 6.14042 175.041 6.23112 179.034 6.18242C196.56 5.9687 213.366 8.8655 228.673 17.9561C232.082 19.9804 235.113 22.5052 237.686 25.5339C239.05 27.1398 240.377 28.7936 240.929 31.1505C238.324 31.6716 236.048 30.9194 233.766 30.7381C230.347 30.4665 226.986 30.7245 223.752 31.76C218.057 33.5833 214.155 37.2891 213.271 43.3523C212.39 49.398 215.941 55.5592 221.665 58.7102C233.379 65.1586 246.699 58.4895 248.681 45.1946C248.844 44.1003 248.587 42.9244 249.265 41.925C264.761 42.1789 284.041 71.0514 280.612 89.0418C278.625 89.1556 277.026 87.9452 275.28 87.3168C269.947 85.3969 264.734 85.1463 259.589 87.9113C253.099 91.3995 250 99.2626 252.317 106.468C254.322 112.7 260.465 115.97 268.013 115.237C275.314 114.528 280.398 110.917 283.636 104.479C284.025 103.705 284.463 102.955 285.046 101.886C289.723 108.424 290.397 115.356 287.991 122.314C282.406 138.468 271.124 147.95 253.848 149.854C251.788 150.081 249.428 150.18 249.644 153.049C249.871 156.057 252.166 155.908 254.458 155.691C273.249 153.91 288.728 141.349 293.687 123.423C296.35 113.799 295.105 104.675 288.631 96.6806C287.376 95.131 286.688 93.6171 286.737 91.5146C287.364 64.7383 276.341 46.3212 252.814 36.309C249.892 35.0655 248.236 33.4072 247.19 30.3175C244.244 21.6193 237.712 15.7455 229.825 11.7881C207.338 0.504498 183.751 -3.22442 159.014 2.99086C157.317 3.41707 155.703 3.43175 154.012 3.10831C151.249 2.58008 148.468 2.14877 145.391 1.61977ZM66.3214 158.156C68.0259 154.793 70.3711 151.906 73.3435 149.632C89.0842 137.587 106.601 135.057 125.333 140.653C131.7 142.555 136.502 146.794 138.999 153.242C139.806 155.326 139.404 156.468 137.196 157.378C130.744 160.037 124.537 163.231 118.518 166.762C106.116 174.037 92.8199 175.853 78.8056 173.352C75.911 172.836 73.1492 171.858 70.5763 170.423C65.4482 167.561 64.2104 164.239 66.3214 158.156ZM157.344 105.673C161.824 106.952 166.029 108.723 169.451 112.036C174.644 117.064 175.605 124.042 171.768 129.386C168.149 134.425 161.442 135.736 155.074 132.615C142.915 126.656 141.322 114.414 137.07 103.554C141.239 102.514 149.61 103.442 157.344 105.673ZM37.3477 95.0996C28.6403 93.2427 24.0429 88.7188 23.4956 81.7582C23.2751 78.9552 24.1352 77.1094 26.6886 75.7794C32.1555 72.932 37.9432 71.8975 43.982 72.6602C50.5394 73.4885 54.2961 77.4134 54.3576 83.0132C54.4472 91.1792 47.2477 96.4971 37.3477 95.0996ZM87.1671 79.0205C88.9649 70.6641 95.1223 67.2378 102.677 65.4865C109.542 63.895 115.875 66.7346 119.36 72.7947C119.879 73.698 120.563 74.5905 119.452 75.4579C112.993 80.5013 106.841 86.1064 98.7293 88.449C91.9028 90.4206 87.2332 86.7175 87.1671 79.0205ZM158.078 34.1876C152.317 32.0646 148.874 27.9624 147.649 21.9857C146.606 16.8972 153.29 8.85294 157.809 10.1739C163.017 11.6963 167.908 14.196 171.129 18.8489C175.592 25.2974 173.092 32.7536 165.903 34.6722C163.474 35.3204 160.998 35.1969 158.078 34.1876ZM101.388 28.4562C103.553 29.7321 105.315 31.431 106.666 33.5419C109.924 38.6329 108.799 43.3219 103.63 46.3732C101.279 47.7615 98.7527 48.6411 96.0584 49.0202C91.564 49.6524 87.44 47.8691 85.5663 44.5299C83.1576 40.237 84.2756 31.0342 88.3782 27.1803C91.7792 23.9855 95.7468 26.6305 99.4258 27.5116C99.9606 27.6397 100.447 27.9684 101.388 28.4562ZM214.041 92.2366C218.15 93.7163 221.554 96.2198 224.617 99.2883C226.232 100.906 226.412 102.492 225.277 104.418C224.278 106.116 223.06 107.636 221.231 108.341C214.553 110.915 207.951 110.568 201.785 106.934C198.95 105.263 197.221 102.327 197.65 98.981C198.119 95.329 200.255 92.6513 203.979 91.3704C207.318 90.2218 210.407 91.0841 214.041 92.2366ZM230.116 36.5632C233.742 36.4348 237.273 36.9712 240.739 38.023C242.008 38.408 242.895 38.9678 243.131 40.4565C244.109 46.6096 239.669 53.5428 233.75 54.964C227.421 56.4839 220.001 52.113 219.089 46.3272C218.282 41.205 222.49 37.2832 230.116 36.5632ZM275.044 93.4438C276.322 94.1439 277.622 94.806 278.869 95.5578C279.669 96.0406 280.24 96.6984 279.939 97.7824C277.569 106.313 271.942 110.962 262.617 109.081C259.917 108.536 258.219 106.415 257.646 103.667C256.407 97.728 260.546 92.371 266.638 91.9419C269.381 91.7487 272.009 92.2465 275.044 93.4438Z"/>
</mask>
<path d="M145.391 1.61977C128.687 0.398501 112.952 2.65805 98.2718 10.4961C95.1661 12.1543 92.1646 14.0142 89.7778 16.5531C87.5119 18.9635 84.8399 19.6816 81.7355 20.1523C66.7853 22.4188 52.7938 27.3579 41.0811 37.109C30.2027 46.1655 22.5685 57.6008 18.932 71.4411C18.4011 73.4612 17.4503 75.0338 15.901 76.5122C5.89508 86.0599 0.898898 97.9127 0.120921 111.615C-0.497922 122.514 1.18186 132.92 6.94296 142.412C11.3721 149.709 17.2569 155.483 25.1263 158.976C32.2539 162.14 38.7632 160.85 44.4999 155.642C49.4524 151.147 53.2989 145.715 57.3248 140.436C63.6225 132.178 70.3688 124.356 78.7901 118.12C89.5688 110.138 101.781 105.929 114.98 104.287C119.001 103.787 123.046 103.469 127.063 102.934C129.88 102.559 131.364 103.459 132.075 106.386C133.725 113.181 136.203 119.726 139.658 125.817C144.601 134.535 151.882 139.891 162.246 139.951C169.113 139.99 174.407 136.851 177.723 130.809C181.082 124.689 180.877 118.502 177.33 112.51C173.885 106.689 168.456 103.404 162.263 101.159C154.664 98.4055 146.814 97.0342 138.745 97.1175C136.316 97.1425 135.132 96.3246 134.394 93.972C132.745 88.7198 130.845 83.5425 128.909 78.3863C128.299 76.7606 128.532 75.733 129.841 74.574C148.622 57.9377 170.221 53.1918 194.03 60.5273C207.633 64.7183 217.399 74.1793 223.847 86.8885C224.489 88.1525 225.116 89.4888 225.037 91.4209C220.395 88.7429 215.981 86.1303 210.811 85.2114C201.291 83.5196 193.203 89.1215 191.952 98.4414C191.199 104.046 194.453 110.295 200.013 112.81C207.462 116.179 215.183 116.824 223.014 113.886C226.163 112.704 228.397 110.373 230.731 107.518C233.798 112.662 235.852 117.725 236.567 123.211C237.488 130.271 237.815 137.355 234.783 144.101C228.919 157.149 213.775 164.73 198.899 162.349C191.055 161.094 183.691 158.237 176.093 156.168C166.997 153.691 157.839 152.036 148.425 154.337C146.384 154.836 145.316 154.019 144.678 152.06C141.664 142.806 134.946 137.449 125.89 134.727C108.679 129.552 92.2539 131.819 76.5561 140.206C71.419 142.951 67.1129 146.765 63.5916 151.376C55.876 161.481 59.0023 173.013 71.0518 177.053C85.2943 181.829 99.6664 181.729 113.61 175.557C118.544 173.373 123.227 170.629 128.051 168.191C131.541 166.427 135.073 164.746 139.127 162.764C138.467 165.434 137.194 166.905 135.806 168.342C130.174 174.174 122.985 177.839 116.374 182.308C108.879 187.375 101.581 192.581 97.3114 200.994C94.9007 205.744 93.9234 210.819 93.6515 215.951C93.14 225.607 93.1838 235.283 94.6923 244.893C95.0262 247.02 95.3212 249.274 98.0573 248.973C101.041 248.645 100.844 246.107 100.531 243.967C99.303 235.593 99.0224 227.177 99.3523 218.742C99.4659 215.837 99.8635 212.921 100.392 210.058C101.823 202.296 106.622 196.761 112.645 192.075C118.613 187.431 125.229 183.753 131.452 179.488C137.886 175.079 143.679 170.184 145.704 162.196C146.124 160.538 147.396 160.329 148.743 160.005C156.879 158.045 164.874 158.987 172.77 161.236C181.32 163.672 189.699 166.698 198.543 168.077C218.15 171.136 237.636 159.445 241.678 141.668C244.549 129.04 242.802 116.837 236.338 105.496C234.335 101.981 232.658 98.5963 232.1 94.3812C230.999 86.0662 226.948 78.8625 221.482 72.5165C207.441 56.2162 189.334 50.2886 168.276 51.6021C153.021 52.5536 140.07 58.7781 128.382 68.1582C127.426 68.9255 126.435 69.6498 125.557 70.3205C124.013 70.0704 123.732 68.8026 123.108 67.955C118.549 61.7599 112.541 58.8067 104.772 59.2242C94.1886 59.7928 84.5217 66.7119 81.8818 75.84C78.6374 87.0582 87.1011 96.4535 98.5809 94.4114C107.059 92.9034 113.353 87.4945 119.945 82.6096C120.758 82.007 121.533 81.3528 122.347 80.7504C122.511 80.6285 122.77 80.6327 123.281 80.5045C125.865 85.0762 127.027 90.2263 128.467 95.2409C129.071 97.3461 127.064 97.0751 125.797 97.1656C117.236 97.7767 108.785 99.0118 100.486 101.266C83.7842 105.803 70.5838 115.517 59.4397 128.442C53.4114 135.433 48.5548 143.369 41.9557 149.884C35.6151 156.144 31.179 156.519 23.6799 151.574C13.2875 144.722 7.82191 134.685 6.20607 122.757C4.42956 109.644 6.84652 97.2095 14.9666 86.3098C15.6246 85.4265 16.1562 84.388 17.3671 83.8799C17.5807 84.0594 17.9802 84.2238 18.0308 84.4621C20.4062 95.6304 28.3734 99.8575 38.7424 101.046C47.9213 102.098 55.7814 97.6541 58.9644 89.7072C63.4889 78.4111 55.8686 67.4985 43.0313 66.6821C37.0864 66.304 31.4519 67.5019 25.7754 69.6509C30.5156 48.9624 60.9784 25.4557 81.0442 26.7006C81.4 27.898 80.6512 28.8612 80.3082 29.8928C79.1266 33.4459 78.3296 37.0449 78.6898 40.8213C79.4787 49.0938 83.567 53.5448 91.7963 54.628C97.8517 55.4251 103.539 53.9596 108.402 50.3036C117.491 43.4709 115.964 30.5233 105.469 24.136C102.474 22.3136 99.1985 21.1482 95.7519 20.205C102.925 10.7966 131.235 4.50832 146.887 8.07085C147.225 8.56652 146.916 8.97531 146.608 9.26063C135.737 19.3115 144.404 36.401 156.32 39.8457C160.769 41.1319 165.231 41.2932 169.592 39.6108C180.207 35.5155 182.426 21.8821 174.004 12.9394C171.986 10.7964 169.433 9.35916 166.803 7.46041C171.01 6.14042 175.041 6.23112 179.034 6.18242C196.56 5.9687 213.366 8.8655 228.673 17.9561C232.082 19.9804 235.113 22.5052 237.686 25.5339C239.05 27.1398 240.377 28.7936 240.929 31.1505C238.324 31.6716 236.048 30.9194 233.766 30.7381C230.347 30.4665 226.986 30.7245 223.752 31.76C218.057 33.5833 214.155 37.2891 213.271 43.3523C212.39 49.398 215.941 55.5592 221.665 58.7102C233.379 65.1586 246.699 58.4895 248.681 45.1946C248.844 44.1003 248.587 42.9244 249.265 41.925C264.761 42.1789 284.041 71.0514 280.612 89.0418C278.625 89.1556 277.026 87.9452 275.28 87.3168C269.947 85.3969 264.734 85.1463 259.589 87.9113C253.099 91.3995 250 99.2626 252.317 106.468C254.322 112.7 260.465 115.97 268.013 115.237C275.314 114.528 280.398 110.917 283.636 104.479C284.025 103.705 284.463 102.955 285.046 101.886C289.723 108.424 290.397 115.356 287.991 122.314C282.406 138.468 271.124 147.95 253.848 149.854C251.788 150.081 249.428 150.18 249.644 153.049C249.871 156.057 252.166 155.908 254.458 155.691C273.249 153.91 288.728 141.349 293.687 123.423C296.35 113.799 295.105 104.675 288.631 96.6806C287.376 95.131 286.688 93.6171 286.737 91.5146C287.364 64.7383 276.341 46.3212 252.814 36.309C249.892 35.0655 248.236 33.4072 247.19 30.3175C244.244 21.6193 237.712 15.7455 229.825 11.7881C207.338 0.504498 183.751 -3.22442 159.014 2.99086C157.317 3.41707 155.703 3.43175 154.012 3.10831C151.249 2.58008 148.468 2.14877 145.391 1.61977ZM66.3214 158.156C68.0259 154.793 70.3711 151.906 73.3435 149.632C89.0842 137.587 106.601 135.057 125.333 140.653C131.7 142.555 136.502 146.794 138.999 153.242C139.806 155.326 139.404 156.468 137.196 157.378C130.744 160.037 124.537 163.231 118.518 166.762C106.116 174.037 92.8199 175.853 78.8056 173.352C75.911 172.836 73.1492 171.858 70.5763 170.423C65.4482 167.561 64.2104 164.239 66.3214 158.156ZM157.344 105.673C161.824 106.952 166.029 108.723 169.451 112.036C174.644 117.064 175.605 124.042 171.768 129.386C168.149 134.425 161.442 135.736 155.074 132.615C142.915 126.656 141.322 114.414 137.07 103.554C141.239 102.514 149.61 103.442 157.344 105.673ZM37.3477 95.0996C28.6403 93.2427 24.0429 88.7188 23.4956 81.7582C23.2751 78.9552 24.1352 77.1094 26.6886 75.7794C32.1555 72.932 37.9432 71.8975 43.982 72.6602C50.5394 73.4885 54.2961 77.4134 54.3576 83.0132C54.4472 91.1792 47.2477 96.4971 37.3477 95.0996ZM87.1671 79.0205C88.9649 70.6641 95.1223 67.2378 102.677 65.4865C109.542 63.895 115.875 66.7346 119.36 72.7947C119.879 73.698 120.563 74.5905 119.452 75.4579C112.993 80.5013 106.841 86.1064 98.7293 88.449C91.9028 90.4206 87.2332 86.7175 87.1671 79.0205ZM158.078 34.1876C152.317 32.0646 148.874 27.9624 147.649 21.9857C146.606 16.8972 153.29 8.85294 157.809 10.1739C163.017 11.6963 167.908 14.196 171.129 18.8489C175.592 25.2974 173.092 32.7536 165.903 34.6722C163.474 35.3204 160.998 35.1969 158.078 34.1876ZM101.388 28.4562C103.553 29.7321 105.315 31.431 106.666 33.5419C109.924 38.6329 108.799 43.3219 103.63 46.3732C101.279 47.7615 98.7527 48.6411 96.0584 49.0202C91.564 49.6524 87.44 47.8691 85.5663 44.5299C83.1576 40.237 84.2756 31.0342 88.3782 27.1803C91.7792 23.9855 95.7468 26.6305 99.4258 27.5116C99.9606 27.6397 100.447 27.9684 101.388 28.4562ZM214.041 92.2366C218.15 93.7163 221.554 96.2198 224.617 99.2883C226.232 100.906 226.412 102.492 225.277 104.418C224.278 106.116 223.06 107.636 221.231 108.341C214.553 110.915 207.951 110.568 201.785 106.934C198.95 105.263 197.221 102.327 197.65 98.981C198.119 95.329 200.255 92.6513 203.979 91.3704C207.318 90.2218 210.407 91.0841 214.041 92.2366ZM230.116 36.5632C233.742 36.4348 237.273 36.9712 240.739 38.023C242.008 38.408 242.895 38.9678 243.131 40.4565C244.109 46.6096 239.669 53.5428 233.75 54.964C227.421 56.4839 220.001 52.113 219.089 46.3272C218.282 41.205 222.49 37.2832 230.116 36.5632ZM275.044 93.4438C276.322 94.1439 277.622 94.806 278.869 95.5578C279.669 96.0406 280.24 96.6984 279.939 97.7824C277.569 106.313 271.942 110.962 262.617 109.081C259.917 108.536 258.219 106.415 257.646 103.667C256.407 97.728 260.546 92.371 266.638 91.9419C269.381 91.7487 272.009 92.2465 275.044 93.4438Z" stroke="black" stroke-width="2" mask="url(#path-1-inside-1_150_40)"/>
</svg>
