<svg width="47" height="40" viewBox="0 0 47 40" fill="none" xmlns="http://www.w3.org/2000/svg">
<mask id="path-1-inside-1_173_11209" fill="white">
<path d="M23.1639 0.260204C20.5027 0.0640162 17.9957 0.426996 15.6569 1.68612C15.1621 1.9525 14.6838 2.25128 14.3036 2.65914C13.9426 3.04634 13.5169 3.16171 13.0223 3.23731C10.6404 3.60142 8.41122 4.39484 6.54513 5.96128C4.81195 7.41615 3.59566 9.25315 3.01628 11.4765C2.93171 11.801 2.78022 12.0536 2.53337 12.2911C0.939217 13.8249 0.143215 15.7289 0.019268 17.9301C-0.0793304 19.681 0.188297 21.3526 1.10617 22.8774C1.81183 24.0497 2.7494 24.9772 4.00317 25.5384C5.13877 26.0466 6.17583 25.8393 7.08981 25.0028C7.87886 24.2807 8.49169 23.408 9.1331 22.56C10.1365 21.2334 11.2113 19.9769 12.553 18.9751C14.2703 17.6928 16.216 17.0167 18.3188 16.753C18.9595 16.6726 19.604 16.6215 20.2439 16.5357C20.6928 16.4754 20.9293 16.6199 21.0425 17.0901C21.3053 18.1817 21.7002 19.233 22.2505 20.2116C23.0382 21.6121 24.1982 22.4725 25.8494 22.482C26.9434 22.4883 27.7868 21.9841 28.3152 21.0134C28.8504 20.0303 28.8176 19.0364 28.2527 18.0739C27.7038 17.1388 26.8388 16.6111 25.8521 16.2505C24.6415 15.8081 23.3907 15.5878 22.1051 15.6012C21.7182 15.6052 21.5296 15.4738 21.4119 15.0959C21.1493 14.2522 20.8465 13.4205 20.5381 12.5922C20.4408 12.331 20.478 12.1659 20.6865 11.9798C23.6788 9.30727 27.1199 8.54487 30.9133 9.72327C33.0805 10.3965 34.6365 11.9164 35.6638 13.958C35.766 14.1611 35.8659 14.3757 35.8533 14.6861C35.1138 14.2559 34.4106 13.8362 33.5868 13.6886C32.0701 13.4168 30.7815 14.3167 30.5822 15.8139C30.4623 16.7142 30.9806 17.7181 31.8665 18.1221C33.0532 18.6633 34.2835 18.7669 35.531 18.2949C36.0328 18.1051 36.3887 17.7306 36.7605 17.2719C37.2492 18.0983 37.5765 18.9116 37.6904 19.7929C37.837 20.9271 37.8892 22.065 37.4061 23.1487C36.4718 25.2448 34.0591 26.4627 31.689 26.0802C30.4393 25.8786 29.266 25.4195 28.0555 25.0872C26.6063 24.6893 25.1472 24.4234 23.6473 24.7931C23.3222 24.8732 23.152 24.742 23.0503 24.4272C22.5702 22.9408 21.4998 22.0802 20.0571 21.6428C17.3149 20.8115 14.6981 21.1758 12.1971 22.5231C11.3786 22.964 10.6926 23.5767 10.1315 24.3175C8.90228 25.9407 9.40037 27.7933 11.3201 28.4423C13.5893 29.2095 15.8791 29.1935 18.1005 28.2019C18.8867 27.851 19.6328 27.4102 20.4014 27.0186C20.9573 26.7352 21.52 26.4653 22.1659 26.1469C22.0609 26.5757 21.858 26.8121 21.6369 27.0429C20.7396 27.9797 19.5942 28.5685 18.5409 29.2864C17.3468 30.1004 16.1841 30.9367 15.5039 32.2882C15.1198 33.0513 14.9641 33.8664 14.9207 34.6909C14.8393 36.2421 14.8462 37.7965 15.0866 39.3402C15.1398 39.6819 15.1868 40.044 15.6227 39.9956C16.0981 39.9429 16.0667 39.5353 16.0167 39.1915C15.8212 37.8463 15.7764 36.4942 15.829 35.1392C15.8471 34.6726 15.9105 34.2042 15.9946 33.7443C16.2227 32.4974 16.9873 31.6082 17.9468 30.8554C18.8977 30.1094 19.9518 29.5186 20.9433 28.8334C21.9682 28.1251 22.8912 27.3387 23.2139 26.0556C23.2808 25.7892 23.4835 25.7557 23.698 25.7036C24.9943 25.3887 26.2681 25.5401 27.5261 25.9014C28.8883 26.2926 30.2233 26.7788 31.6322 27.0004C34.756 27.4917 37.8607 25.6136 38.5046 22.7579C38.9621 20.7293 38.6837 18.769 37.6538 16.9471C37.3347 16.3825 37.0675 15.8388 36.9786 15.1616C36.8032 13.8259 36.1579 12.6687 35.287 11.6492C33.05 9.03072 30.165 8.07848 26.8101 8.28949C24.3797 8.44235 22.3163 9.44226 20.454 10.9491C20.3017 11.0724 20.1439 11.1887 20.0039 11.2965C19.7581 11.2563 19.7132 11.0526 19.6138 10.9165C18.8875 9.92127 17.9302 9.44687 16.6924 9.51392C15.0063 9.60526 13.4662 10.7168 13.0456 12.1831C12.5287 13.9853 13.8771 15.4945 15.7061 15.1665C17.0568 14.9242 18.0596 14.0553 19.1099 13.2706C19.2395 13.1738 19.3629 13.0687 19.4925 12.972C19.5188 12.9524 19.56 12.953 19.6414 12.9325C20.0531 13.6669 20.2383 14.4942 20.4676 15.2997C20.5638 15.6379 20.2441 15.5944 20.0422 15.6089C18.6782 15.7071 17.3319 15.9055 16.0097 16.2676C13.3487 16.9965 11.2455 18.5569 9.47005 20.6332C8.50961 21.7563 7.73585 23.0312 6.68447 24.0778C5.67427 25.0834 4.96751 25.1436 3.77273 24.3493C2.11699 23.2486 1.2462 21.6361 0.988766 19.7201C0.705727 17.6135 1.0908 15.616 2.38451 13.865C2.48935 13.7231 2.57404 13.5563 2.76696 13.4747C2.80099 13.5035 2.86464 13.5299 2.87271 13.5682C3.25115 15.3623 4.52052 16.0414 6.17252 16.2323C7.63493 16.4014 8.88721 15.6874 9.39433 14.4108C10.1152 12.5962 8.9011 10.8431 6.85584 10.712C5.90868 10.6512 5.01099 10.8437 4.10659 11.1889C4.8618 7.86545 9.7152 4.08927 12.9121 4.28926C12.9688 4.4816 12.8495 4.63634 12.7949 4.80205C12.6066 5.37284 12.4796 5.95098 12.537 6.55765C12.6627 7.88655 13.3141 8.60158 14.6252 8.77559C15.5899 8.90364 16.4961 8.6682 17.2709 8.0809C18.7189 6.98328 18.4755 4.90335 16.8035 3.87727C16.3264 3.58451 15.8045 3.3973 15.2554 3.24579C16.3981 1.73439 20.9087 0.724228 23.4023 1.29652C23.4563 1.37615 23.407 1.44182 23.3578 1.48765C21.6259 3.10225 23.0067 5.84754 24.9052 6.40092C25.6141 6.60754 26.3249 6.63345 27.0197 6.36318C28.711 5.70529 29.0645 3.5152 27.7227 2.07862C27.4012 1.73435 26.9944 1.50348 26.5754 1.19846C27.2457 0.986413 27.8879 1.00098 28.5241 0.993161C31.3164 0.958828 33.9938 1.42418 36.4327 2.88452C36.9757 3.2097 37.4587 3.6153 37.8686 4.10184C38.0859 4.3598 38.2973 4.62547 38.3852 5.0041C37.9703 5.0878 37.6076 4.96697 37.244 4.93785C36.6993 4.89422 36.1639 4.93566 35.6486 5.102C34.7412 5.3949 34.1196 5.99022 33.9788 6.96422C33.8384 7.93542 34.4041 8.92517 35.3161 9.43136C37.1824 10.4672 39.3045 9.3959 39.6204 7.26017C39.6464 7.08438 39.6054 6.89549 39.7135 6.73493C42.1822 6.77573 45.2539 11.4139 44.7078 14.3039C44.3911 14.3222 44.1363 14.1277 43.8582 14.0268C43.0085 13.7184 42.178 13.6781 41.3583 14.1223C40.3243 14.6826 39.8305 15.9458 40.1997 17.1032C40.5191 18.1044 41.4979 18.6297 42.7003 18.512C43.8636 18.3981 44.6737 17.8179 45.1894 16.7837C45.2514 16.6594 45.3212 16.539 45.4142 16.3672C46.1593 17.4175 46.2666 18.5311 45.8833 19.6488C44.9935 22.2438 43.1961 23.7671 40.4436 24.0729C40.1154 24.1093 39.7393 24.1254 39.7738 24.5862C39.8099 25.0694 40.1755 25.0455 40.5408 25.0106C43.5346 24.7246 46.0007 22.7067 46.7909 19.8269C47.2151 18.2809 47.0167 16.8152 45.9853 15.531C45.7854 15.2821 45.6757 15.0389 45.6835 14.7011C45.7834 10.3997 44.0273 7.44116 40.2788 5.83278C39.8133 5.63301 39.5494 5.36662 39.3828 4.87029C38.9135 3.47298 37.8728 2.5294 36.6162 1.89367C33.0334 0.0810439 29.2756 -0.517979 25.3344 0.480459C25.0641 0.548928 24.807 0.551284 24.5375 0.499327C24.0974 0.414471 23.6543 0.345184 23.1639 0.260204ZM10.5665 25.4066C10.838 24.8663 11.2117 24.4026 11.6852 24.0373C14.1931 22.1023 16.984 21.6959 19.9684 22.5949C20.9828 22.9004 21.7477 23.5814 22.1456 24.6172C22.2742 24.952 22.2101 25.1355 21.8584 25.2816C20.8304 25.7088 19.8414 26.2219 18.8825 26.789C16.9066 27.9578 14.7882 28.2495 12.5555 27.8477C12.0943 27.7648 11.6543 27.6077 11.2444 27.3771C10.4273 26.9175 10.2301 26.3838 10.5665 25.4066ZM25.0684 16.9756C25.7822 17.181 26.452 17.4655 26.9973 17.9978C27.8247 18.8055 27.9777 19.9264 27.3664 20.7849C26.7899 21.5944 25.7213 21.805 24.7067 21.3036C22.7696 20.3463 22.5156 18.3798 21.8383 16.6351C22.5025 16.468 23.8362 16.6171 25.0684 16.9756ZM5.95032 15.277C4.56303 14.9788 3.83057 14.252 3.74336 13.1338C3.70824 12.6836 3.84527 12.387 4.25208 12.1734C5.12308 11.716 6.04519 11.5498 7.00731 11.6723C8.05204 11.8054 8.65056 12.4359 8.66036 13.3355C8.67464 14.6473 7.5276 15.5015 5.95032 15.277ZM13.8876 12.6941C14.1741 11.3517 15.1551 10.8013 16.3587 10.5199C17.4525 10.2643 18.4614 10.7204 19.0167 11.6939C19.0994 11.839 19.2083 11.9824 19.0313 12.1218C18.0022 12.9319 17.0221 13.8324 15.7298 14.2087C14.6421 14.5254 13.8982 13.9305 13.8876 12.6941ZM25.1854 5.49198C24.2674 5.15094 23.7189 4.49196 23.5237 3.53184C23.3575 2.71441 24.4226 1.42216 25.1425 1.63436C25.9722 1.87892 26.7515 2.28048 27.2646 3.02793C27.9757 4.06383 27.5774 5.26162 26.432 5.56983C26.0451 5.67395 25.6506 5.65412 25.1854 5.49198ZM16.1533 4.57128C16.4983 4.77624 16.7789 5.04916 16.9942 5.38825C17.5133 6.20609 17.3341 6.95935 16.5106 7.44952C16.1359 7.67253 15.7335 7.81383 15.3042 7.87472C14.5882 7.9763 13.9311 7.68982 13.6326 7.1534C13.2488 6.46377 13.427 4.98542 14.0806 4.36631C14.6224 3.85309 15.2546 4.27799 15.8407 4.41954C15.9259 4.44011 16.0034 4.49292 16.1533 4.57128ZM34.1015 14.8171C34.7562 15.0548 35.2985 15.457 35.7865 15.9499C36.0437 16.2098 36.0724 16.4646 35.8917 16.774C35.7324 17.0467 35.5384 17.2909 35.2469 17.4042C34.1829 17.8176 33.1313 17.762 32.1488 17.1781C31.697 16.9097 31.4217 16.4381 31.4901 15.9006C31.5647 15.3139 31.9051 14.8837 32.4983 14.678C33.0303 14.4935 33.5225 14.632 34.1015 14.8171ZM36.6626 5.8736C37.2403 5.85298 37.8028 5.93915 38.355 6.10812C38.5571 6.16995 38.6985 6.25988 38.7362 6.49903C38.8919 7.48748 38.1845 8.60125 37.2416 8.82956C36.2332 9.07372 35.0511 8.37157 34.9058 7.44212C34.7771 6.61928 35.4475 5.98927 36.6626 5.8736ZM43.8206 15.0111C44.0241 15.1235 44.2313 15.2299 44.4299 15.3507C44.5574 15.4282 44.6484 15.5339 44.6004 15.708C44.2229 17.0784 43.3264 17.8252 41.8407 17.5231C41.4106 17.4356 41.14 17.0948 41.0486 16.6533C40.8513 15.6993 41.5108 14.8387 42.4813 14.7698C42.9183 14.7388 43.337 14.8187 43.8206 15.0111Z"/>
</mask>
<path d="M23.1639 0.260204C20.5027 0.0640162 17.9957 0.426996 15.6569 1.68612C15.1621 1.9525 14.6838 2.25128 14.3036 2.65914C13.9426 3.04634 13.5169 3.16171 13.0223 3.23731C10.6404 3.60142 8.41122 4.39484 6.54513 5.96128C4.81195 7.41615 3.59566 9.25315 3.01628 11.4765C2.93171 11.801 2.78022 12.0536 2.53337 12.2911C0.939217 13.8249 0.143215 15.7289 0.019268 17.9301C-0.0793304 19.681 0.188297 21.3526 1.10617 22.8774C1.81183 24.0497 2.7494 24.9772 4.00317 25.5384C5.13877 26.0466 6.17583 25.8393 7.08981 25.0028C7.87886 24.2807 8.49169 23.408 9.1331 22.56C10.1365 21.2334 11.2113 19.9769 12.553 18.9751C14.2703 17.6928 16.216 17.0167 18.3188 16.753C18.9595 16.6726 19.604 16.6215 20.2439 16.5357C20.6928 16.4754 20.9293 16.6199 21.0425 17.0901C21.3053 18.1817 21.7002 19.233 22.2505 20.2116C23.0382 21.6121 24.1982 22.4725 25.8494 22.482C26.9434 22.4883 27.7868 21.9841 28.3152 21.0134C28.8504 20.0303 28.8176 19.0364 28.2527 18.0739C27.7038 17.1388 26.8388 16.6111 25.8521 16.2505C24.6415 15.8081 23.3907 15.5878 22.1051 15.6012C21.7182 15.6052 21.5296 15.4738 21.4119 15.0959C21.1493 14.2522 20.8465 13.4205 20.5381 12.5922C20.4408 12.331 20.478 12.1659 20.6865 11.9798C23.6788 9.30727 27.1199 8.54487 30.9133 9.72327C33.0805 10.3965 34.6365 11.9164 35.6638 13.958C35.766 14.1611 35.8659 14.3757 35.8533 14.6861C35.1138 14.2559 34.4106 13.8362 33.5868 13.6886C32.0701 13.4168 30.7815 14.3167 30.5822 15.8139C30.4623 16.7142 30.9806 17.7181 31.8665 18.1221C33.0532 18.6633 34.2835 18.7669 35.531 18.2949C36.0328 18.1051 36.3887 17.7306 36.7605 17.2719C37.2492 18.0983 37.5765 18.9116 37.6904 19.7929C37.837 20.9271 37.8892 22.065 37.4061 23.1487C36.4718 25.2448 34.0591 26.4627 31.689 26.0802C30.4393 25.8786 29.266 25.4195 28.0555 25.0872C26.6063 24.6893 25.1472 24.4234 23.6473 24.7931C23.3222 24.8732 23.152 24.742 23.0503 24.4272C22.5702 22.9408 21.4998 22.0802 20.0571 21.6428C17.3149 20.8115 14.6981 21.1758 12.1971 22.5231C11.3786 22.964 10.6926 23.5767 10.1315 24.3175C8.90228 25.9407 9.40037 27.7933 11.3201 28.4423C13.5893 29.2095 15.8791 29.1935 18.1005 28.2019C18.8867 27.851 19.6328 27.4102 20.4014 27.0186C20.9573 26.7352 21.52 26.4653 22.1659 26.1469C22.0609 26.5757 21.858 26.8121 21.6369 27.0429C20.7396 27.9797 19.5942 28.5685 18.5409 29.2864C17.3468 30.1004 16.1841 30.9367 15.5039 32.2882C15.1198 33.0513 14.9641 33.8664 14.9207 34.6909C14.8393 36.2421 14.8462 37.7965 15.0866 39.3402C15.1398 39.6819 15.1868 40.044 15.6227 39.9956C16.0981 39.9429 16.0667 39.5353 16.0167 39.1915C15.8212 37.8463 15.7764 36.4942 15.829 35.1392C15.8471 34.6726 15.9105 34.2042 15.9946 33.7443C16.2227 32.4974 16.9873 31.6082 17.9468 30.8554C18.8977 30.1094 19.9518 29.5186 20.9433 28.8334C21.9682 28.1251 22.8912 27.3387 23.2139 26.0556C23.2808 25.7892 23.4835 25.7557 23.698 25.7036C24.9943 25.3887 26.2681 25.5401 27.5261 25.9014C28.8883 26.2926 30.2233 26.7788 31.6322 27.0004C34.756 27.4917 37.8607 25.6136 38.5046 22.7579C38.9621 20.7293 38.6837 18.769 37.6538 16.9471C37.3347 16.3825 37.0675 15.8388 36.9786 15.1616C36.8032 13.8259 36.1579 12.6687 35.287 11.6492C33.05 9.03072 30.165 8.07848 26.8101 8.28949C24.3797 8.44235 22.3163 9.44226 20.454 10.9491C20.3017 11.0724 20.1439 11.1887 20.0039 11.2965C19.7581 11.2563 19.7132 11.0526 19.6138 10.9165C18.8875 9.92127 17.9302 9.44687 16.6924 9.51392C15.0063 9.60526 13.4662 10.7168 13.0456 12.1831C12.5287 13.9853 13.8771 15.4945 15.7061 15.1665C17.0568 14.9242 18.0596 14.0553 19.1099 13.2706C19.2395 13.1738 19.3629 13.0687 19.4925 12.972C19.5188 12.9524 19.56 12.953 19.6414 12.9325C20.0531 13.6669 20.2383 14.4942 20.4676 15.2997C20.5638 15.6379 20.2441 15.5944 20.0422 15.6089C18.6782 15.7071 17.3319 15.9055 16.0097 16.2676C13.3487 16.9965 11.2455 18.5569 9.47005 20.6332C8.50961 21.7563 7.73585 23.0312 6.68447 24.0778C5.67427 25.0834 4.96751 25.1436 3.77273 24.3493C2.11699 23.2486 1.2462 21.6361 0.988766 19.7201C0.705727 17.6135 1.0908 15.616 2.38451 13.865C2.48935 13.7231 2.57404 13.5563 2.76696 13.4747C2.80099 13.5035 2.86464 13.5299 2.87271 13.5682C3.25115 15.3623 4.52052 16.0414 6.17252 16.2323C7.63493 16.4014 8.88721 15.6874 9.39433 14.4108C10.1152 12.5962 8.9011 10.8431 6.85584 10.712C5.90868 10.6512 5.01099 10.8437 4.10659 11.1889C4.8618 7.86545 9.7152 4.08927 12.9121 4.28926C12.9688 4.4816 12.8495 4.63634 12.7949 4.80205C12.6066 5.37284 12.4796 5.95098 12.537 6.55765C12.6627 7.88655 13.3141 8.60158 14.6252 8.77559C15.5899 8.90364 16.4961 8.6682 17.2709 8.0809C18.7189 6.98328 18.4755 4.90335 16.8035 3.87727C16.3264 3.58451 15.8045 3.3973 15.2554 3.24579C16.3981 1.73439 20.9087 0.724228 23.4023 1.29652C23.4563 1.37615 23.407 1.44182 23.3578 1.48765C21.6259 3.10225 23.0067 5.84754 24.9052 6.40092C25.6141 6.60754 26.3249 6.63345 27.0197 6.36318C28.711 5.70529 29.0645 3.5152 27.7227 2.07862C27.4012 1.73435 26.9944 1.50348 26.5754 1.19846C27.2457 0.986413 27.8879 1.00098 28.5241 0.993161C31.3164 0.958828 33.9938 1.42418 36.4327 2.88452C36.9757 3.2097 37.4587 3.6153 37.8686 4.10184C38.0859 4.3598 38.2973 4.62547 38.3852 5.0041C37.9703 5.0878 37.6076 4.96697 37.244 4.93785C36.6993 4.89422 36.1639 4.93566 35.6486 5.102C34.7412 5.3949 34.1196 5.99022 33.9788 6.96422C33.8384 7.93542 34.4041 8.92517 35.3161 9.43136C37.1824 10.4672 39.3045 9.3959 39.6204 7.26017C39.6464 7.08438 39.6054 6.89549 39.7135 6.73493C42.1822 6.77573 45.2539 11.4139 44.7078 14.3039C44.3911 14.3222 44.1363 14.1277 43.8582 14.0268C43.0085 13.7184 42.178 13.6781 41.3583 14.1223C40.3243 14.6826 39.8305 15.9458 40.1997 17.1032C40.5191 18.1044 41.4979 18.6297 42.7003 18.512C43.8636 18.3981 44.6737 17.8179 45.1894 16.7837C45.2514 16.6594 45.3212 16.539 45.4142 16.3672C46.1593 17.4175 46.2666 18.5311 45.8833 19.6488C44.9935 22.2438 43.1961 23.7671 40.4436 24.0729C40.1154 24.1093 39.7393 24.1254 39.7738 24.5862C39.8099 25.0694 40.1755 25.0455 40.5408 25.0106C43.5346 24.7246 46.0007 22.7067 46.7909 19.8269C47.2151 18.2809 47.0167 16.8152 45.9853 15.531C45.7854 15.2821 45.6757 15.0389 45.6835 14.7011C45.7834 10.3997 44.0273 7.44116 40.2788 5.83278C39.8133 5.63301 39.5494 5.36662 39.3828 4.87029C38.9135 3.47298 37.8728 2.5294 36.6162 1.89367C33.0334 0.0810439 29.2756 -0.517979 25.3344 0.480459C25.0641 0.548928 24.807 0.551284 24.5375 0.499327C24.0974 0.414471 23.6543 0.345184 23.1639 0.260204ZM10.5665 25.4066C10.838 24.8663 11.2117 24.4026 11.6852 24.0373C14.1931 22.1023 16.984 21.6959 19.9684 22.5949C20.9828 22.9004 21.7477 23.5814 22.1456 24.6172C22.2742 24.952 22.2101 25.1355 21.8584 25.2816C20.8304 25.7088 19.8414 26.2219 18.8825 26.789C16.9066 27.9578 14.7882 28.2495 12.5555 27.8477C12.0943 27.7648 11.6543 27.6077 11.2444 27.3771C10.4273 26.9175 10.2301 26.3838 10.5665 25.4066ZM25.0684 16.9756C25.7822 17.181 26.452 17.4655 26.9973 17.9978C27.8247 18.8055 27.9777 19.9264 27.3664 20.7849C26.7899 21.5944 25.7213 21.805 24.7067 21.3036C22.7696 20.3463 22.5156 18.3798 21.8383 16.6351C22.5025 16.468 23.8362 16.6171 25.0684 16.9756ZM5.95032 15.277C4.56303 14.9788 3.83057 14.252 3.74336 13.1338C3.70824 12.6836 3.84527 12.387 4.25208 12.1734C5.12308 11.716 6.04519 11.5498 7.00731 11.6723C8.05204 11.8054 8.65056 12.4359 8.66036 13.3355C8.67464 14.6473 7.5276 15.5015 5.95032 15.277ZM13.8876 12.6941C14.1741 11.3517 15.1551 10.8013 16.3587 10.5199C17.4525 10.2643 18.4614 10.7204 19.0167 11.6939C19.0994 11.839 19.2083 11.9824 19.0313 12.1218C18.0022 12.9319 17.0221 13.8324 15.7298 14.2087C14.6421 14.5254 13.8982 13.9305 13.8876 12.6941ZM25.1854 5.49198C24.2674 5.15094 23.7189 4.49196 23.5237 3.53184C23.3575 2.71441 24.4226 1.42216 25.1425 1.63436C25.9722 1.87892 26.7515 2.28048 27.2646 3.02793C27.9757 4.06383 27.5774 5.26162 26.432 5.56983C26.0451 5.67395 25.6506 5.65412 25.1854 5.49198ZM16.1533 4.57128C16.4983 4.77624 16.7789 5.04916 16.9942 5.38825C17.5133 6.20609 17.3341 6.95935 16.5106 7.44952C16.1359 7.67253 15.7335 7.81383 15.3042 7.87472C14.5882 7.9763 13.9311 7.68982 13.6326 7.1534C13.2488 6.46377 13.427 4.98542 14.0806 4.36631C14.6224 3.85309 15.2546 4.27799 15.8407 4.41954C15.9259 4.44011 16.0034 4.49292 16.1533 4.57128ZM34.1015 14.8171C34.7562 15.0548 35.2985 15.457 35.7865 15.9499C36.0437 16.2098 36.0724 16.4646 35.8917 16.774C35.7324 17.0467 35.5384 17.2909 35.2469 17.4042C34.1829 17.8176 33.1313 17.762 32.1488 17.1781C31.697 16.9097 31.4217 16.4381 31.4901 15.9006C31.5647 15.3139 31.9051 14.8837 32.4983 14.678C33.0303 14.4935 33.5225 14.632 34.1015 14.8171ZM36.6626 5.8736C37.2403 5.85298 37.8028 5.93915 38.355 6.10812C38.5571 6.16995 38.6985 6.25988 38.7362 6.49903C38.8919 7.48748 38.1845 8.60125 37.2416 8.82956C36.2332 9.07372 35.0511 8.37157 34.9058 7.44212C34.7771 6.61928 35.4475 5.98927 36.6626 5.8736ZM43.8206 15.0111C44.0241 15.1235 44.2313 15.2299 44.4299 15.3507C44.5574 15.4282 44.6484 15.5339 44.6004 15.708C44.2229 17.0784 43.3264 17.8252 41.8407 17.5231C41.4106 17.4356 41.14 17.0948 41.0486 16.6533C40.8513 15.6993 41.5108 14.8387 42.4813 14.7698C42.9183 14.7388 43.337 14.8187 43.8206 15.0111Z" stroke="#B0F191" stroke-width="2" mask="url(#path-1-inside-1_173_11209)"/>
</svg>
