<svg width="30" height="30" viewBox="0 0 30 30" fill="none" xmlns="http://www.w3.org/2000/svg">
<path d="M14.925 24C15.45 24 15.894 23.8185 16.257 23.4555C16.62 23.0925 16.801 22.649 16.8 22.125C16.8 21.6 16.619 21.156 16.257 20.793C15.895 20.43 15.451 20.249 14.925 20.25C14.4 20.25 13.9565 20.4315 13.5945 20.7945C13.2325 21.1575 13.051 21.601 13.05 22.125C13.05 22.65 13.2315 23.094 13.5945 23.457C13.9575 23.82 14.401 24.001 14.925 24ZM13.575 18.225H16.35C16.35 17.4 16.444 16.75 16.632 16.275C16.82 15.8 17.351 15.15 18.225 14.325C18.875 13.675 19.3875 13.056 19.7625 12.468C20.1375 11.88 20.325 11.174 20.325 10.35C20.325 8.95 19.8125 7.875 18.7875 7.125C17.7625 6.375 16.55 6 15.15 6C13.725 6 12.5685 6.375 11.6805 7.125C10.7925 7.875 10.174 8.775 9.825 9.825L12.3 10.8C12.425 10.35 12.7065 9.8625 13.1445 9.3375C13.5825 8.8125 14.251 8.55 15.15 8.55C15.95 8.55 16.55 8.769 16.95 9.207C17.35 9.645 17.55 10.126 17.55 10.65C17.55 11.15 17.4 11.619 17.1 12.057C16.8 12.495 16.425 12.901 15.975 13.275C14.875 14.25 14.2 14.9875 13.95 15.4875C13.7 15.9875 13.575 16.9 13.575 18.225ZM15 30C12.925 30 10.975 29.606 9.15 28.818C7.325 28.03 5.7375 26.9615 4.3875 25.6125C3.0375 24.2625 1.969 22.675 1.182 20.85C0.395 19.025 0.001 17.075 0 15C0 12.925 0.394 10.975 1.182 9.15C1.97 7.325 3.0385 5.7375 4.3875 4.3875C5.7375 3.0375 7.325 1.969 9.15 1.182C10.975 0.395 12.925 0.001 15 0C17.075 0 19.025 0.394 20.85 1.182C22.675 1.97 24.2625 3.0385 25.6125 4.3875C26.9625 5.7375 28.0315 7.325 28.8195 9.15C29.6075 10.975 30.001 12.925 30 15C30 17.075 29.606 19.025 28.818 20.85C28.03 22.675 26.9615 24.2625 25.6125 25.6125C24.2625 26.9625 22.675 28.0315 20.85 28.8195C19.025 29.6075 17.075 30.001 15 30ZM15 27C18.35 27 21.1875 25.8375 23.5125 23.5125C25.8375 21.1875 27 18.35 27 15C27 11.65 25.8375 8.8125 23.5125 6.4875C21.1875 4.1625 18.35 3 15 3C11.65 3 8.8125 4.1625 6.4875 6.4875C4.1625 8.8125 3 11.65 3 15C3 18.35 4.1625 21.1875 6.4875 23.5125C8.8125 25.8375 11.65 27 15 27Z" fill="#5E5D68"/>
</svg>
