<svg width="30" height="23" viewBox="0 0 30 23" fill="none" xmlns="http://www.w3.org/2000/svg">
<path d="M16.605 9.61508C17.5162 8.34197 18.0061 6.81565 18.0061 5.25008C18.0061 3.68451 17.5162 2.15818 16.605 0.885079C17.4578 0.303012 18.4675 -0.0056702 19.5 7.88685e-05C20.8924 7.88685e-05 22.2277 0.553203 23.2123 1.53777C24.1969 2.52233 24.75 3.85769 24.75 5.25008C24.75 6.64247 24.1969 7.97782 23.2123 8.96239C22.2277 9.94695 20.8924 10.5001 19.5 10.5001C18.4675 10.5058 17.4578 10.1971 16.605 9.61508ZM5.25 5.25008C5.25 4.21173 5.55791 3.19669 6.13478 2.33334C6.71166 1.46998 7.5316 0.797072 8.49091 0.399712C9.45022 0.00235149 10.5058 -0.101616 11.5242 0.100956C12.5426 0.303529 13.4781 0.803543 14.2123 1.53777C14.9465 2.27199 15.4466 3.20745 15.6491 4.22585C15.8517 5.24426 15.7477 6.29985 15.3504 7.25917C14.953 8.21848 14.2801 9.03842 13.4167 9.61529C12.5534 10.1922 11.5384 10.5001 10.5 10.5001C9.10761 10.5001 7.77226 9.94695 6.78769 8.96239C5.80312 7.97782 5.25 6.64247 5.25 5.25008ZM8.25 5.25008C8.25 5.69509 8.38196 6.1301 8.62919 6.50011C8.87643 6.87012 9.22783 7.15851 9.63896 7.32881C10.0501 7.49911 10.5025 7.54366 10.939 7.45685C11.3754 7.37003 11.7763 7.15574 12.091 6.84107C12.4057 6.5264 12.62 6.12549 12.7068 5.68903C12.7936 5.25257 12.749 4.80018 12.5787 4.38904C12.4084 3.97791 12.12 3.62651 11.75 3.37927C11.38 3.13204 10.945 3.00008 10.5 3.00008C9.90326 3.00008 9.33097 3.23713 8.90901 3.65909C8.48705 4.08105 8.25 4.65334 8.25 5.25008ZM21 19.5001V22.5001H0V19.5001C0 19.5001 0 13.5001 10.5 13.5001C21 13.5001 21 19.5001 21 19.5001ZM18 19.5001C17.79 18.3301 16.005 16.5001 10.5 16.5001C4.995 16.5001 3.105 18.4651 3 19.5001M20.925 13.5001C21.8444 14.2152 22.596 15.1229 23.1273 16.1594C23.6585 17.1959 23.9564 18.3362 24 19.5001V22.5001H30V19.5001C30 19.5001 30 14.0551 20.91 13.5001H20.925Z" fill="#5E5D68"/>
</svg>
