<svg width="30" height="30" viewBox="0 0 30 30" fill="none" xmlns="http://www.w3.org/2000/svg">
<path d="M8.90625 11.25C10.2007 11.25 11.25 10.2007 11.25 8.90625C11.25 7.61183 10.2007 6.5625 8.90625 6.5625C7.61183 6.5625 6.5625 7.61183 6.5625 8.90625C6.5625 10.2007 7.61183 11.25 8.90625 11.25Z" fill="#5E5D68"/>
<path d="M8.90625 23.4375C10.2007 23.4375 11.25 22.3882 11.25 21.0938C11.25 19.7993 10.2007 18.75 8.90625 18.75C7.61183 18.75 6.5625 19.7993 6.5625 21.0938C6.5625 22.3882 7.61183 23.4375 8.90625 23.4375Z" fill="#5E5D68"/>
<path d="M21.0938 23.4375C22.3882 23.4375 23.4375 22.3882 23.4375 21.0938C23.4375 19.7993 22.3882 18.75 21.0938 18.75C19.7993 18.75 18.75 19.7993 18.75 21.0938C18.75 22.3882 19.7993 23.4375 21.0938 23.4375Z" fill="#5E5D68"/>
<path d="M26.25 1.875H3.75C3.25287 1.8755 2.77625 2.0732 2.42472 2.42472C2.0732 2.77625 1.8755 3.25287 1.875 3.75V26.25C1.8755 26.7471 2.0732 27.2238 2.42472 27.5753C2.77625 27.9268 3.25287 28.1245 3.75 28.125H26.25C26.7471 28.1245 27.2238 27.9268 27.5753 27.5753C27.9268 27.2238 28.1245 26.7471 28.125 26.25V3.75C28.1245 3.25287 27.9268 2.77625 27.5753 2.42472C27.2238 2.0732 26.7471 1.8755 26.25 1.875ZM26.25 14.0625H15.9375V3.75H26.25V14.0625ZM14.0625 3.75V14.0625H3.75V3.75H14.0625ZM3.75 15.9375H14.0625V26.25H3.75V15.9375ZM15.9375 26.25V15.9375H26.25V26.25H15.9375Z" fill="#5E5D68"/>
</svg>
