<svg width="24" height="30" viewBox="0 0 24 30" fill="none" xmlns="http://www.w3.org/2000/svg">
<path d="M0 15C0 15.3978 0.158036 15.7794 0.43934 16.0607C0.720645 16.342 1.10218 16.5 1.5 16.5H12.885L9.435 19.935C9.29441 20.0744 9.18282 20.2403 9.10666 20.4231C9.03051 20.6059 8.9913 20.802 8.9913 21C8.9913 21.198 9.03051 21.3941 9.10666 21.5769C9.18282 21.7597 9.29441 21.9256 9.435 22.065C9.57444 22.2056 9.74035 22.3172 9.92313 22.3933C10.1059 22.4695 10.302 22.5087 10.5 22.5087C10.698 22.5087 10.8941 22.4695 11.0769 22.3933C11.2597 22.3172 11.4256 22.2056 11.565 22.065L17.565 16.065C17.7016 15.9223 17.8086 15.7541 17.88 15.57C18.03 15.2048 18.03 14.7952 17.88 14.43C17.8086 14.2459 17.7016 14.0777 17.565 13.935L11.565 7.935C11.4251 7.79514 11.2591 7.6842 11.0764 7.60851C10.8936 7.53282 10.6978 7.49386 10.5 7.49386C10.3022 7.49386 10.1064 7.53282 9.92363 7.60851C9.74089 7.6842 9.57486 7.79514 9.435 7.935C9.29514 8.07486 9.1842 8.24089 9.10851 8.42363C9.03282 8.60636 8.99386 8.80221 8.99386 9C8.99386 9.19779 9.03282 9.39364 9.10851 9.57637C9.1842 9.75911 9.29514 9.92514 9.435 10.065L12.885 13.5H1.5C1.10218 13.5 0.720645 13.658 0.43934 13.9393C0.158036 14.2206 0 14.6022 0 15ZM19.5 0H4.5C3.30653 0 2.16193 0.474106 1.31802 1.31802C0.474106 2.16193 0 3.30653 0 4.5V9C0 9.39782 0.158036 9.77936 0.43934 10.0607C0.720645 10.342 1.10218 10.5 1.5 10.5C1.89782 10.5 2.27936 10.342 2.56066 10.0607C2.84196 9.77936 3 9.39782 3 9V4.5C3 4.10218 3.15804 3.72064 3.43934 3.43934C3.72064 3.15804 4.10218 3 4.5 3H19.5C19.8978 3 20.2794 3.15804 20.5607 3.43934C20.842 3.72064 21 4.10218 21 4.5V25.5C21 25.8978 20.842 26.2794 20.5607 26.5607C20.2794 26.842 19.8978 27 19.5 27H4.5C4.10218 27 3.72064 26.842 3.43934 26.5607C3.15804 26.2794 3 25.8978 3 25.5V21C3 20.6022 2.84196 20.2206 2.56066 19.9393C2.27936 19.658 1.89782 19.5 1.5 19.5C1.10218 19.5 0.720645 19.658 0.43934 19.9393C0.158036 20.2206 0 20.6022 0 21V25.5C0 26.6935 0.474106 27.8381 1.31802 28.682C2.16193 29.5259 3.30653 30 4.5 30H19.5C20.6935 30 21.8381 29.5259 22.682 28.682C23.5259 27.8381 24 26.6935 24 25.5V4.5C24 3.30653 23.5259 2.16193 22.682 1.31802C21.8381 0.474106 20.6935 0 19.5 0Z" fill="#5E5D68"/>
</svg>
