<svg width="478" height="405" viewBox="0 0 478 405" fill="none" xmlns="http://www.w3.org/2000/svg">
<mask id="path-1-inside-1_138_394" fill="white">
<path d="M235.862 3.36753C208.857 1.38845 183.416 5.05008 159.682 17.7517C154.661 20.4389 149.808 23.4529 145.95 27.5673C142.286 31.4733 137.966 32.637 132.947 33.3997C108.776 37.0727 86.1552 45.0764 67.2185 60.8782C49.6306 75.5545 37.288 94.0856 31.4085 116.514C30.5503 119.787 29.013 122.336 26.5081 124.732C10.331 140.204 2.2533 159.411 0.995498 181.616C-0.00502541 199.278 2.71079 216.141 12.0251 231.523C19.186 243.349 28.7003 252.705 41.4233 258.366C52.947 263.493 63.4709 261.401 72.7458 252.963C80.7529 245.679 86.9717 236.876 93.4806 228.321C103.663 214.939 114.57 202.264 128.185 192.157C145.612 179.222 165.356 172.402 186.695 169.742C193.197 168.931 199.737 168.416 206.231 167.549C210.785 166.942 213.185 168.399 214.334 173.142C217.002 184.154 221.009 194.759 226.593 204.631C234.586 218.759 246.358 227.438 263.114 227.534C274.216 227.598 282.774 222.512 288.136 212.72C293.567 202.802 293.235 192.776 287.502 183.067C281.931 173.634 273.154 168.31 263.141 164.673C250.856 160.21 238.164 157.988 225.118 158.123C221.191 158.163 219.277 156.838 218.083 153.025C215.418 144.514 212.345 136.124 209.216 127.769C208.229 125.134 208.606 123.469 210.721 121.591C241.087 94.6315 276.007 86.9407 314.501 98.828C336.494 105.619 352.283 120.951 362.708 141.547C363.745 143.595 364.759 145.76 364.631 148.891C357.127 144.552 349.991 140.318 341.631 138.829C326.24 136.087 313.164 145.165 311.141 160.268C309.924 169.351 315.184 179.478 324.175 183.553C336.217 189.012 348.701 190.057 361.36 185.296C366.453 183.381 370.064 179.604 373.837 174.976C378.797 183.313 382.118 191.517 383.274 200.407C384.761 211.849 385.291 223.328 380.389 234.26C370.907 255.405 346.424 267.69 322.373 263.832C309.691 261.798 297.785 257.167 285.5 253.814C270.794 249.801 255.988 247.118 240.768 250.848C237.468 251.656 235.741 250.332 234.709 247.157C229.838 232.162 218.975 223.481 204.335 219.069C176.508 210.683 149.953 214.358 124.573 227.949C116.268 232.396 109.306 238.577 103.613 246.05C91.1383 262.424 96.1928 281.113 115.674 287.66C138.701 295.399 161.937 295.237 184.48 285.235C192.458 281.695 200.03 277.249 207.828 273.298C213.47 270.439 219.181 267.716 225.735 264.504C224.669 268.83 222.61 271.214 220.367 273.543C211.261 282.993 199.638 288.932 188.949 296.175C176.831 304.386 165.032 312.823 158.13 326.456C154.232 334.154 152.652 342.377 152.212 350.694C151.385 366.342 151.456 382.022 153.895 397.595C154.435 401.042 154.912 404.694 159.335 404.206C164.16 403.674 163.841 399.562 163.334 396.095C161.35 382.524 160.896 368.885 161.429 355.216C161.613 350.509 162.256 345.784 163.109 341.144C165.424 328.567 173.183 319.596 182.92 312.002C192.57 304.477 203.266 298.517 213.328 291.605C223.729 284.46 233.095 276.527 236.369 263.583C237.049 260.896 239.105 260.558 241.282 260.032C254.436 256.856 267.363 258.384 280.128 262.028C293.952 265.975 307.499 270.879 321.796 273.114C353.496 278.07 385.002 259.125 391.536 230.318C396.178 209.853 393.353 190.079 382.903 171.7C379.664 166.004 376.952 160.519 376.05 153.689C374.271 140.214 367.722 128.54 358.884 118.257C336.184 91.8418 306.908 82.2359 272.863 84.3645C248.199 85.9065 227.261 95.9933 208.363 111.194C206.817 112.437 205.215 113.611 203.795 114.698C201.3 114.293 200.845 112.238 199.837 110.865C192.466 100.825 182.751 96.0398 170.191 96.7162C153.081 97.6376 137.452 108.85 133.183 123.642C127.938 141.822 141.622 157.047 160.182 153.738C173.889 151.294 184.064 142.529 194.723 134.613C196.038 133.636 197.291 132.576 198.606 131.6C198.872 131.402 199.29 131.409 200.117 131.201C204.295 138.61 206.173 146.956 208.5 155.082C209.477 158.493 206.233 158.054 204.183 158.201C190.343 159.191 176.68 161.193 163.263 164.846C136.259 172.198 114.917 187.939 96.8999 208.884C87.1535 220.214 79.3017 233.074 68.6325 243.632C58.3813 253.776 51.2091 254.384 39.0848 246.371C22.2827 235.267 13.4462 219.001 10.8337 199.673C7.96154 178.423 11.8692 158.272 24.9974 140.609C26.0614 139.177 26.9208 137.494 28.8784 136.671C29.2238 136.962 29.8697 137.229 29.9516 137.615C33.7919 155.713 46.6731 162.563 63.4373 164.489C78.2775 166.195 90.9853 158.992 96.1316 146.114C103.447 127.809 91.1264 110.125 70.3715 108.802C60.7599 108.189 51.6504 110.13 42.4727 113.613C50.1364 80.0869 99.3877 41.994 131.829 44.0114C132.405 45.9517 131.194 47.5127 130.639 49.1843C128.729 54.9422 127.44 60.7744 128.023 66.8942C129.298 80.2998 135.908 87.5127 149.213 89.2681C159.003 90.5598 168.198 88.1848 176.061 82.2603C190.755 71.1879 188.286 50.2061 171.318 39.8554C166.477 36.9021 161.181 35.0136 155.608 33.4852C167.205 18.2386 212.976 8.04846 238.281 13.8216C238.829 14.6248 238.329 15.2873 237.83 15.7497C220.255 32.0372 234.267 59.7309 253.532 65.3132C260.726 67.3975 267.939 67.6589 274.99 64.9325C292.153 58.2959 295.74 36.203 282.124 21.7112C278.861 18.2383 274.733 15.9093 270.481 12.8324C277.283 10.6933 283.8 10.8403 290.256 10.7614C318.592 10.415 345.762 15.1093 370.511 29.8408C376.021 33.1212 380.923 37.2127 385.082 42.1207C387.287 44.723 389.432 47.403 390.325 51.2224C386.114 52.0669 382.433 50.848 378.744 50.5542C373.216 50.114 367.783 50.5321 362.554 52.2101C353.346 55.1648 347.038 61.1701 345.609 70.9956C344.184 80.7928 349.926 90.777 359.18 95.8834C378.118 106.333 399.653 95.5256 402.859 73.981C403.122 72.2077 402.707 70.3023 403.803 68.6826C428.855 69.0942 460.027 115.882 454.484 145.036C451.271 145.22 448.685 143.259 445.863 142.241C437.241 139.13 428.813 138.723 420.495 143.204C410.002 148.857 404.991 161.599 408.738 173.275C411.979 183.374 421.911 188.674 434.113 187.486C445.918 186.337 454.138 180.484 459.372 170.051C460.001 168.797 460.709 167.583 461.653 165.85C469.214 176.445 470.303 187.679 466.414 198.954C457.384 225.132 439.144 240.498 411.213 243.583C407.882 243.95 404.066 244.112 404.415 248.761C404.782 253.635 408.492 253.394 412.199 253.042C442.579 250.156 467.604 229.801 475.623 200.751C479.928 185.155 477.915 170.369 467.449 157.415C465.42 154.904 464.307 152.45 464.386 149.043C465.4 105.652 447.579 75.8068 409.541 59.5819C404.816 57.5668 402.139 54.8795 400.447 49.8726C395.686 35.777 385.124 26.2585 372.373 19.8455C336.016 1.56022 297.882 -4.48254 257.888 5.5894C255.145 6.28009 252.535 6.30386 249.801 5.77973C245.335 4.92374 240.839 4.22478 235.862 3.36753ZM108.026 257.037C110.782 251.587 114.573 246.909 119.379 243.223C144.828 223.704 173.149 219.604 203.434 228.673C213.728 231.755 221.491 238.624 225.529 249.074C226.833 252.451 226.183 254.302 222.614 255.776C212.182 260.085 202.146 265.261 192.416 270.982C172.364 282.772 150.868 285.715 128.21 281.662C123.53 280.825 119.065 279.241 114.905 276.915C106.614 272.278 104.613 266.894 108.026 257.037ZM255.188 171.987C262.432 174.059 269.229 176.929 274.762 182.299C283.159 190.447 284.711 201.754 278.508 210.414C272.658 218.581 261.814 220.705 251.518 215.647C231.861 205.99 229.284 186.153 222.41 168.553C229.15 166.867 242.685 168.371 255.188 171.987ZM61.1825 154.853C47.1045 151.844 39.6717 144.513 38.7868 133.233C38.4304 128.691 39.8209 125.699 43.9491 123.544C52.7878 118.93 62.1452 117.253 71.9085 118.49C82.5102 119.832 88.584 126.192 88.6834 135.267C88.8283 148.5 77.1883 157.117 61.1825 154.853ZM141.729 128.796C144.635 115.255 154.59 109.702 166.804 106.864C177.904 104.285 188.142 108.887 193.777 118.707C194.617 120.171 195.722 121.618 193.926 123.023C183.483 131.196 173.536 140.279 160.422 144.075C149.385 147.27 141.835 141.269 141.729 128.796ZM256.376 56.1441C247.06 52.7038 241.494 46.0562 239.514 36.3708C237.827 28.1248 248.635 15.089 255.94 17.2296C264.36 19.6967 272.268 23.7474 277.475 31.2875C284.691 41.7374 280.649 53.8203 269.026 56.9295C265.099 57.9798 261.096 57.7797 256.376 56.1441ZM164.72 46.8563C168.221 48.9239 171.069 51.677 173.253 55.0977C178.521 63.3478 176.703 70.9464 168.346 75.8911C164.543 78.1408 160.46 79.5662 156.104 80.1805C148.837 81.2051 142.17 78.3152 139.141 72.9039C135.246 65.9472 137.054 51.0341 143.687 44.7887C149.185 39.6115 155.6 43.8977 161.548 45.3256C162.413 45.5332 163.199 46.0659 164.72 46.8563ZM346.854 150.213C353.498 152.611 359.001 156.668 363.953 161.641C366.563 164.262 366.854 166.832 365.02 169.954C363.405 172.704 361.436 175.168 358.478 176.31C347.681 180.481 337.008 179.92 327.039 174.03C322.454 171.322 319.661 166.566 320.354 161.143C321.111 155.225 324.565 150.885 330.586 148.81C335.984 146.948 340.979 148.346 346.854 150.213ZM372.844 59.9937C378.706 59.7857 384.414 60.655 390.018 62.3595C392.069 62.9833 393.504 63.8904 393.886 66.3029C395.466 76.2741 388.288 87.5094 378.719 89.8125C368.486 92.2756 356.49 85.1925 355.016 75.8165C353.71 67.5159 360.514 61.1606 372.844 59.9937ZM445.481 152.17C447.547 153.304 449.65 154.377 451.665 155.595C452.959 156.378 453.882 157.444 453.395 159.2C449.564 173.025 440.466 180.558 425.39 177.51C421.025 176.627 418.279 173.19 417.352 168.736C415.35 159.112 422.042 150.431 431.891 149.736C436.325 149.423 440.574 150.229 445.481 152.17Z"/>
</mask>
<path d="M235.862 3.36753C208.857 1.38845 183.416 5.05008 159.682 17.7517C154.661 20.4389 149.808 23.4529 145.95 27.5673C142.286 31.4733 137.966 32.637 132.947 33.3997C108.776 37.0727 86.1552 45.0764 67.2185 60.8782C49.6306 75.5545 37.288 94.0856 31.4085 116.514C30.5503 119.787 29.013 122.336 26.5081 124.732C10.331 140.204 2.2533 159.411 0.995498 181.616C-0.00502541 199.278 2.71079 216.141 12.0251 231.523C19.186 243.349 28.7003 252.705 41.4233 258.366C52.947 263.493 63.4709 261.401 72.7458 252.963C80.7529 245.679 86.9717 236.876 93.4806 228.321C103.663 214.939 114.57 202.264 128.185 192.157C145.612 179.222 165.356 172.402 186.695 169.742C193.197 168.931 199.737 168.416 206.231 167.549C210.785 166.942 213.185 168.399 214.334 173.142C217.002 184.154 221.009 194.759 226.593 204.631C234.586 218.759 246.358 227.438 263.114 227.534C274.216 227.598 282.774 222.512 288.136 212.72C293.567 202.802 293.235 192.776 287.502 183.067C281.931 173.634 273.154 168.31 263.141 164.673C250.856 160.21 238.164 157.988 225.118 158.123C221.191 158.163 219.277 156.838 218.083 153.025C215.418 144.514 212.345 136.124 209.216 127.769C208.229 125.134 208.606 123.469 210.721 121.591C241.087 94.6315 276.007 86.9407 314.501 98.828C336.494 105.619 352.283 120.951 362.708 141.547C363.745 143.595 364.759 145.76 364.631 148.891C357.127 144.552 349.991 140.318 341.631 138.829C326.24 136.087 313.164 145.165 311.141 160.268C309.924 169.351 315.184 179.478 324.175 183.553C336.217 189.012 348.701 190.057 361.36 185.296C366.453 183.381 370.064 179.604 373.837 174.976C378.797 183.313 382.118 191.517 383.274 200.407C384.761 211.849 385.291 223.328 380.389 234.26C370.907 255.405 346.424 267.69 322.373 263.832C309.691 261.798 297.785 257.167 285.5 253.814C270.794 249.801 255.988 247.118 240.768 250.848C237.468 251.656 235.741 250.332 234.709 247.157C229.838 232.162 218.975 223.481 204.335 219.069C176.508 210.683 149.953 214.358 124.573 227.949C116.268 232.396 109.306 238.577 103.613 246.05C91.1383 262.424 96.1928 281.113 115.674 287.66C138.701 295.399 161.937 295.237 184.48 285.235C192.458 281.695 200.03 277.249 207.828 273.298C213.47 270.439 219.181 267.716 225.735 264.504C224.669 268.83 222.61 271.214 220.367 273.543C211.261 282.993 199.638 288.932 188.949 296.175C176.831 304.386 165.032 312.823 158.13 326.456C154.232 334.154 152.652 342.377 152.212 350.694C151.385 366.342 151.456 382.022 153.895 397.595C154.435 401.042 154.912 404.694 159.335 404.206C164.16 403.674 163.841 399.562 163.334 396.095C161.35 382.524 160.896 368.885 161.429 355.216C161.613 350.509 162.256 345.784 163.109 341.144C165.424 328.567 173.183 319.596 182.92 312.002C192.57 304.477 203.266 298.517 213.328 291.605C223.729 284.46 233.095 276.527 236.369 263.583C237.049 260.896 239.105 260.558 241.282 260.032C254.436 256.856 267.363 258.384 280.128 262.028C293.952 265.975 307.499 270.879 321.796 273.114C353.496 278.07 385.002 259.125 391.536 230.318C396.178 209.853 393.353 190.079 382.903 171.7C379.664 166.004 376.952 160.519 376.05 153.689C374.271 140.214 367.722 128.54 358.884 118.257C336.184 91.8418 306.908 82.2359 272.863 84.3645C248.199 85.9065 227.261 95.9933 208.363 111.194C206.817 112.437 205.215 113.611 203.795 114.698C201.3 114.293 200.845 112.238 199.837 110.865C192.466 100.825 182.751 96.0398 170.191 96.7162C153.081 97.6376 137.452 108.85 133.183 123.642C127.938 141.822 141.622 157.047 160.182 153.738C173.889 151.294 184.064 142.529 194.723 134.613C196.038 133.636 197.291 132.576 198.606 131.6C198.872 131.402 199.29 131.409 200.117 131.201C204.295 138.61 206.173 146.956 208.5 155.082C209.477 158.493 206.233 158.054 204.183 158.201C190.343 159.191 176.68 161.193 163.263 164.846C136.259 172.198 114.917 187.939 96.8999 208.884C87.1535 220.214 79.3017 233.074 68.6325 243.632C58.3813 253.776 51.2091 254.384 39.0848 246.371C22.2827 235.267 13.4462 219.001 10.8337 199.673C7.96154 178.423 11.8692 158.272 24.9974 140.609C26.0614 139.177 26.9208 137.494 28.8784 136.671C29.2238 136.962 29.8697 137.229 29.9516 137.615C33.7919 155.713 46.6731 162.563 63.4373 164.489C78.2775 166.195 90.9853 158.992 96.1316 146.114C103.447 127.809 91.1264 110.125 70.3715 108.802C60.7599 108.189 51.6504 110.13 42.4727 113.613C50.1364 80.0869 99.3877 41.994 131.829 44.0114C132.405 45.9517 131.194 47.5127 130.639 49.1843C128.729 54.9422 127.44 60.7744 128.023 66.8942C129.298 80.2998 135.908 87.5127 149.213 89.2681C159.003 90.5598 168.198 88.1848 176.061 82.2603C190.755 71.1879 188.286 50.2061 171.318 39.8554C166.477 36.9021 161.181 35.0136 155.608 33.4852C167.205 18.2386 212.976 8.04846 238.281 13.8216C238.829 14.6248 238.329 15.2873 237.83 15.7497C220.255 32.0372 234.267 59.7309 253.532 65.3132C260.726 67.3975 267.939 67.6589 274.99 64.9325C292.153 58.2959 295.74 36.203 282.124 21.7112C278.861 18.2383 274.733 15.9093 270.481 12.8324C277.283 10.6933 283.8 10.8403 290.256 10.7614C318.592 10.415 345.762 15.1093 370.511 29.8408C376.021 33.1212 380.923 37.2127 385.082 42.1207C387.287 44.723 389.432 47.403 390.325 51.2224C386.114 52.0669 382.433 50.848 378.744 50.5542C373.216 50.114 367.783 50.5321 362.554 52.2101C353.346 55.1648 347.038 61.1701 345.609 70.9956C344.184 80.7928 349.926 90.777 359.18 95.8834C378.118 106.333 399.653 95.5256 402.859 73.981C403.122 72.2077 402.707 70.3023 403.803 68.6826C428.855 69.0942 460.027 115.882 454.484 145.036C451.271 145.22 448.685 143.259 445.863 142.241C437.241 139.13 428.813 138.723 420.495 143.204C410.002 148.857 404.991 161.599 408.738 173.275C411.979 183.374 421.911 188.674 434.113 187.486C445.918 186.337 454.138 180.484 459.372 170.051C460.001 168.797 460.709 167.583 461.653 165.85C469.214 176.445 470.303 187.679 466.414 198.954C457.384 225.132 439.144 240.498 411.213 243.583C407.882 243.95 404.066 244.112 404.415 248.761C404.782 253.635 408.492 253.394 412.199 253.042C442.579 250.156 467.604 229.801 475.623 200.751C479.928 185.155 477.915 170.369 467.449 157.415C465.42 154.904 464.307 152.45 464.386 149.043C465.4 105.652 447.579 75.8068 409.541 59.5819C404.816 57.5668 402.139 54.8795 400.447 49.8726C395.686 35.777 385.124 26.2585 372.373 19.8455C336.016 1.56022 297.882 -4.48254 257.888 5.5894C255.145 6.28009 252.535 6.30386 249.801 5.77973C245.335 4.92374 240.839 4.22478 235.862 3.36753ZM108.026 257.037C110.782 251.587 114.573 246.909 119.379 243.223C144.828 223.704 173.149 219.604 203.434 228.673C213.728 231.755 221.491 238.624 225.529 249.074C226.833 252.451 226.183 254.302 222.614 255.776C212.182 260.085 202.146 265.261 192.416 270.982C172.364 282.772 150.868 285.715 128.21 281.662C123.53 280.825 119.065 279.241 114.905 276.915C106.614 272.278 104.613 266.894 108.026 257.037ZM255.188 171.987C262.432 174.059 269.229 176.929 274.762 182.299C283.159 190.447 284.711 201.754 278.508 210.414C272.658 218.581 261.814 220.705 251.518 215.647C231.861 205.99 229.284 186.153 222.41 168.553C229.15 166.867 242.685 168.371 255.188 171.987ZM61.1825 154.853C47.1045 151.844 39.6717 144.513 38.7868 133.233C38.4304 128.691 39.8209 125.699 43.9491 123.544C52.7878 118.93 62.1452 117.253 71.9085 118.49C82.5102 119.832 88.584 126.192 88.6834 135.267C88.8283 148.5 77.1883 157.117 61.1825 154.853ZM141.729 128.796C144.635 115.255 154.59 109.702 166.804 106.864C177.904 104.285 188.142 108.887 193.777 118.707C194.617 120.171 195.722 121.618 193.926 123.023C183.483 131.196 173.536 140.279 160.422 144.075C149.385 147.27 141.835 141.269 141.729 128.796ZM256.376 56.1441C247.06 52.7038 241.494 46.0562 239.514 36.3708C237.827 28.1248 248.635 15.089 255.94 17.2296C264.36 19.6967 272.268 23.7474 277.475 31.2875C284.691 41.7374 280.649 53.8203 269.026 56.9295C265.099 57.9798 261.096 57.7797 256.376 56.1441ZM164.72 46.8563C168.221 48.9239 171.069 51.677 173.253 55.0977C178.521 63.3478 176.703 70.9464 168.346 75.8911C164.543 78.1408 160.46 79.5662 156.104 80.1805C148.837 81.2051 142.17 78.3152 139.141 72.9039C135.246 65.9472 137.054 51.0341 143.687 44.7887C149.185 39.6115 155.6 43.8977 161.548 45.3256C162.413 45.5332 163.199 46.0659 164.72 46.8563ZM346.854 150.213C353.498 152.611 359.001 156.668 363.953 161.641C366.563 164.262 366.854 166.832 365.02 169.954C363.405 172.704 361.436 175.168 358.478 176.31C347.681 180.481 337.008 179.92 327.039 174.03C322.454 171.322 319.661 166.566 320.354 161.143C321.111 155.225 324.565 150.885 330.586 148.81C335.984 146.948 340.979 148.346 346.854 150.213ZM372.844 59.9937C378.706 59.7857 384.414 60.655 390.018 62.3595C392.069 62.9833 393.504 63.8904 393.886 66.3029C395.466 76.2741 388.288 87.5094 378.719 89.8125C368.486 92.2756 356.49 85.1925 355.016 75.8165C353.71 67.5159 360.514 61.1606 372.844 59.9937ZM445.481 152.17C447.547 153.304 449.65 154.377 451.665 155.595C452.959 156.378 453.882 157.444 453.395 159.2C449.564 173.025 440.466 180.558 425.39 177.51C421.025 176.627 418.279 173.19 417.352 168.736C415.35 159.112 422.042 150.431 431.891 149.736C436.325 149.423 440.574 150.229 445.481 152.17Z" stroke="black" stroke-width="2" mask="url(#path-1-inside-1_138_394)"/>
</svg>
