<svg width="20" height="25" viewBox="0 0 20 25" fill="none" xmlns="http://www.w3.org/2000/svg">
<path d="M8.6875 20L15.75 12.9375L13.9375 11.125L8.65625 16.4063L6.03125 13.7813L4.25 15.5625L8.6875 20ZM2.5 25C1.8125 25 1.22375 24.755 0.733752 24.265C0.243752 23.775 -0.000831211 23.1867 2.12224e-06 22.5V2.5C2.12224e-06 1.8125 0.245002 1.22375 0.735002 0.733752C1.225 0.243752 1.81334 -0.000831211 2.5 2.12224e-06H12.5L20 7.5V22.5C20 23.1875 19.755 23.7763 19.265 24.2663C18.775 24.7563 18.1867 25.0008 17.5 25H2.5ZM11.25 8.75V2.5H2.5V22.5H17.5V8.75H11.25Z" fill="#5E5D68"/>
</svg>
